<?xml version="1.0" encoding="UTF-8" standalone="no"?>
<!DOCTYPE svg PUBLIC "-//W3C//DTD SVG 1.1//EN"
 "http://www.w3.org/Graphics/SVG/1.1/DTD/svg11.dtd">
<!-- Generated by graphviz version 2.46.0 (20210118.1747)
 -->
<!-- Pages: 1 -->
<svg width="145pt" height="473pt"
 viewBox="0.00 0.00 145.00 473.00" xmlns="http://www.w3.org/2000/svg" xmlns:xlink="http://www.w3.org/1999/xlink">
<g id="graph0" class="graph" transform="scale(1 1) rotate(0) translate(4 469)">
<polygon fill="white" stroke="transparent" points="-4,4 -4,-469 141,-469 141,4 -4,4"/>
<!-- fake -->
<g id="node1" class="node">
<title>fake</title>
</g>
<!-- 0 -->
<g id="node5" class="node">
<title>0</title>
<ellipse fill="none" stroke="black" cx="60" cy="-374" rx="27" ry="18"/>
<text text-anchor="middle" x="60" y="-370.3" font-family="Times New Roman,serif" font-size="14.00">0</text>
</g>
<!-- fake&#45;&gt;0 -->
<g id="edge1" class="edge">
<title>fake&#45;&gt;0</title>
<path fill="none" stroke="black" stroke-width="2" d="M60,-428.81C60,-420.79 60,-411.05 60,-402.07"/>
<polygon fill="black" stroke="black" stroke-width="2" points="63.5,-402.03 60,-392.03 56.5,-402.03 63.5,-402.03"/>
</g>
<!-- 1 -->
<g id="node2" class="node">
<title>1</title>
<ellipse fill="none" stroke="black" cx="85" cy="-287" rx="27" ry="18"/>
<text text-anchor="middle" x="85" y="-283.3" font-family="Times New Roman,serif" font-size="14.00">1</text>
</g>
<!-- 1&#45;&gt;1 -->
<g id="edge4" class="edge">
<title>1&#45;&gt;1</title>
<path fill="none" stroke="black" d="M109.53,-294.75C120.51,-295.49 130,-292.91 130,-287 130,-283.03 125.72,-280.56 119.57,-279.59"/>
<polygon fill="black" stroke="black" points="119.65,-276.09 109.53,-279.25 119.41,-283.09 119.65,-276.09"/>
<text text-anchor="middle" x="133.5" y="-283.3" font-family="Times New Roman,serif" font-size="14.00">a</text>
</g>
<!-- 2 -->
<g id="node4" class="node">
<title>2</title>
<ellipse fill="none" stroke="black" cx="27" cy="-200" rx="27" ry="18"/>
<text text-anchor="middle" x="27" y="-196.3" font-family="Times New Roman,serif" font-size="14.00">2</text>
</g>
<!-- 1&#45;&gt;2 -->
<g id="edge5" class="edge">
<title>1&#45;&gt;2</title>
<path fill="none" stroke="black" d="M74.36,-270.41C65.75,-257.79 53.47,-239.79 43.57,-225.28"/>
<polygon fill="black" stroke="black" points="46.29,-223.07 37.77,-216.78 40.51,-227.01 46.29,-223.07"/>
<text text-anchor="middle" x="63" y="-239.8" font-family="Times New Roman,serif" font-size="14.00">b</text>
</g>
<!-- 4 -->
<g id="node3" class="node">
<title>4</title>
<ellipse fill="none" stroke="black" cx="59" cy="-22" rx="18" ry="18"/>
<ellipse fill="none" stroke="black" cx="59" cy="-22" rx="22" ry="22"/>
<text text-anchor="middle" x="59" y="-18.3" font-family="Times New Roman,serif" font-size="14.00">4</text>
</g>
<!-- 4&#45;&gt;4 -->
<g id="edge10" class="edge">
<title>4&#45;&gt;4</title>
<path fill="none" stroke="black" d="M80.81,-26.25C90.56,-26.65 99,-25.23 99,-22 99,-19.98 95.7,-18.67 90.85,-18.07"/>
<polygon fill="black" stroke="black" points="90.91,-14.57 80.81,-17.75 90.69,-21.56 90.91,-14.57"/>
<text text-anchor="middle" x="102.5" y="-18.3" font-family="Times New Roman,serif" font-size="14.00">a</text>
</g>
<!-- 4&#45;&gt;4 -->
<g id="edge11" class="edge">
<title>4&#45;&gt;4</title>
<path fill="none" stroke="black" d="M79.81,-29.2C97.88,-32.49 117,-30.09 117,-22 117,-15.43 104.38,-12.61 89.96,-13.55"/>
<polygon fill="black" stroke="black" points="89.31,-10.1 79.81,-14.8 90.17,-17.05 89.31,-10.1"/>
<text text-anchor="middle" x="121" y="-18.3" font-family="Times New Roman,serif" font-size="14.00">b</text>
</g>
<!-- 2&#45;&gt;0 -->
<g id="edge7" class="edge">
<title>2&#45;&gt;0</title>
<path fill="none" stroke="black" d="M28.56,-218.05C30.63,-238.76 34.75,-274.67 41,-305 43.84,-318.79 47.96,-333.89 51.63,-346.35"/>
<polygon fill="black" stroke="black" points="48.34,-347.55 54.58,-356.11 55.04,-345.53 48.34,-347.55"/>
<text text-anchor="middle" x="45" y="-283.3" font-family="Times New Roman,serif" font-size="14.00">b</text>
</g>
<!-- 3 -->
<g id="node6" class="node">
<title>3</title>
<ellipse fill="none" stroke="black" cx="59" cy="-113" rx="27" ry="18"/>
<text text-anchor="middle" x="59" y="-109.3" font-family="Times New Roman,serif" font-size="14.00">3</text>
</g>
<!-- 2&#45;&gt;3 -->
<g id="edge6" class="edge">
<title>2&#45;&gt;3</title>
<path fill="none" stroke="black" d="M33.32,-182.21C37.84,-170.22 44,-153.85 49.15,-140.16"/>
<polygon fill="black" stroke="black" points="52.44,-141.35 52.69,-130.76 45.89,-138.88 52.44,-141.35"/>
<text text-anchor="middle" x="47.5" y="-152.8" font-family="Times New Roman,serif" font-size="14.00">a</text>
</g>
<!-- 0&#45;&gt;1 -->
<g id="edge2" class="edge">
<title>0&#45;&gt;1</title>
<path fill="none" stroke="black" d="M58.95,-355.95C58.85,-346.1 59.6,-333.6 63,-323 64.22,-319.19 65.96,-315.38 67.92,-311.74"/>
<polygon fill="black" stroke="black" points="70.92,-313.55 73.12,-303.19 64.94,-309.92 70.92,-313.55"/>
<text text-anchor="middle" x="66.5" y="-326.8" font-family="Times New Roman,serif" font-size="14.00">ε</text>
</g>
<!-- 0&#45;&gt;1 -->
<g id="edge3" class="edge">
<title>0&#45;&gt;1</title>
<path fill="none" stroke="black" d="M64.94,-356.21C68.43,-344.33 73.19,-328.17 77.19,-314.56"/>
<polygon fill="black" stroke="black" points="80.61,-315.34 80.07,-304.76 73.89,-313.36 80.61,-315.34"/>
<text text-anchor="middle" x="77" y="-326.8" font-family="Times New Roman,serif" font-size="14.00">b</text>
</g>
<!-- 3&#45;&gt;1 -->
<g id="edge8" class="edge">
<title>3&#45;&gt;1</title>
<path fill="none" stroke="black" d="M61.58,-131.05C66.09,-160.88 75.44,-222.76 80.86,-258.64"/>
<polygon fill="black" stroke="black" points="77.46,-259.51 82.41,-268.88 84.38,-258.47 77.46,-259.51"/>
<text text-anchor="middle" x="77.5" y="-196.3" font-family="Times New Roman,serif" font-size="14.00">a</text>
</g>
<!-- 3&#45;&gt;4 -->
<g id="edge9" class="edge">
<title>3&#45;&gt;4</title>
<path fill="none" stroke="black" d="M59,-94.84C59,-83.44 59,-68.13 59,-54.58"/>
<polygon fill="black" stroke="black" points="62.5,-54.19 59,-44.19 55.5,-54.19 62.5,-54.19"/>
<text text-anchor="middle" x="63" y="-65.8" font-family="Times New Roman,serif" font-size="14.00">b</text>
</g>
</g>
</svg>
