<?xml version="1.0" encoding="UTF-8" standalone="no"?>
<!DOCTYPE svg PUBLIC "-//W3C//DTD SVG 1.1//EN"
 "http://www.w3.org/Graphics/SVG/1.1/DTD/svg11.dtd">
<!-- Generated by graphviz version 2.46.0 (20210118.1747)
 -->
<!-- Pages: 1 -->
<svg width="145pt" height="473pt"
 viewBox="0.00 0.00 145.43 473.00" xmlns="http://www.w3.org/2000/svg" xmlns:xlink="http://www.w3.org/1999/xlink">
<g id="graph0" class="graph" transform="scale(1 1) rotate(0) translate(4 469)">
<polygon fill="white" stroke="transparent" points="-4,4 -4,-469 141.43,-469 141.43,4 -4,4"/>
<!-- fake -->
<g id="node1" class="node">
<title>fake</title>
</g>
<!-- 0 -->
<g id="node5" class="node">
<title>0</title>
<ellipse fill="none" stroke="black" cx="32.43" cy="-374" rx="27" ry="18"/>
<text text-anchor="middle" x="32.43" y="-370.3" font-family="Times New Roman,serif" font-size="14.00">0</text>
</g>
<!-- fake&#45;&gt;0 -->
<g id="edge1" class="edge">
<title>fake&#45;&gt;0</title>
<path fill="none" stroke="black" stroke-width="2" d="M32.43,-428.81C32.43,-420.79 32.43,-411.05 32.43,-402.07"/>
<polygon fill="black" stroke="black" stroke-width="2" points="35.93,-402.03 32.43,-392.03 28.93,-402.03 35.93,-402.03"/>
</g>
<!-- 1 -->
<g id="node2" class="node">
<title>1</title>
<ellipse fill="none" stroke="black" cx="85.43" cy="-287" rx="27" ry="18"/>
<text text-anchor="middle" x="85.43" y="-283.3" font-family="Times New Roman,serif" font-size="14.00">1</text>
</g>
<!-- 1&#45;&gt;1 -->
<g id="edge3" class="edge">
<title>1&#45;&gt;1</title>
<path fill="none" stroke="black" d="M109.96,-294.75C120.93,-295.49 130.43,-292.91 130.43,-287 130.43,-283.03 126.14,-280.56 120,-279.59"/>
<polygon fill="black" stroke="black" points="120.07,-276.09 109.96,-279.25 119.83,-283.09 120.07,-276.09"/>
<text text-anchor="middle" x="133.93" y="-283.3" font-family="Times New Roman,serif" font-size="14.00">a</text>
</g>
<!-- 2 -->
<g id="node4" class="node">
<title>2</title>
<ellipse fill="none" stroke="black" cx="30.43" cy="-200" rx="27" ry="18"/>
<text text-anchor="middle" x="30.43" y="-196.3" font-family="Times New Roman,serif" font-size="14.00">2</text>
</g>
<!-- 1&#45;&gt;2 -->
<g id="edge4" class="edge">
<title>1&#45;&gt;2</title>
<path fill="none" stroke="black" d="M75.08,-270.01C66.94,-257.43 55.45,-239.68 46.17,-225.33"/>
<polygon fill="black" stroke="black" points="49.1,-223.41 40.72,-216.92 43.22,-227.21 49.1,-223.41"/>
<text text-anchor="middle" x="64.43" y="-239.8" font-family="Times New Roman,serif" font-size="14.00">b</text>
</g>
<!-- 4 -->
<g id="node3" class="node">
<title>4</title>
<ellipse fill="none" stroke="black" cx="62.43" cy="-22" rx="18" ry="18"/>
<ellipse fill="none" stroke="black" cx="62.43" cy="-22" rx="22" ry="22"/>
<text text-anchor="middle" x="62.43" y="-18.3" font-family="Times New Roman,serif" font-size="14.00">4</text>
</g>
<!-- 4&#45;&gt;4 -->
<g id="edge9" class="edge">
<title>4&#45;&gt;4</title>
<path fill="none" stroke="black" d="M84.23,-26.25C93.99,-26.65 102.43,-25.23 102.43,-22 102.43,-19.98 99.13,-18.67 94.28,-18.07"/>
<polygon fill="black" stroke="black" points="94.34,-14.57 84.23,-17.75 94.12,-21.56 94.34,-14.57"/>
<text text-anchor="middle" x="105.93" y="-18.3" font-family="Times New Roman,serif" font-size="14.00">a</text>
</g>
<!-- 4&#45;&gt;4 -->
<g id="edge10" class="edge">
<title>4&#45;&gt;4</title>
<path fill="none" stroke="black" d="M83.24,-29.2C101.31,-32.49 120.43,-30.09 120.43,-22 120.43,-15.43 107.81,-12.61 93.38,-13.55"/>
<polygon fill="black" stroke="black" points="92.74,-10.1 83.24,-14.8 93.59,-17.05 92.74,-10.1"/>
<text text-anchor="middle" x="124.43" y="-18.3" font-family="Times New Roman,serif" font-size="14.00">b</text>
</g>
<!-- 2&#45;&gt;0 -->
<g id="edge6" class="edge">
<title>2&#45;&gt;0</title>
<path fill="none" stroke="black" d="M30.62,-218.05C30.97,-247.88 31.69,-309.76 32.11,-345.64"/>
<polygon fill="black" stroke="black" points="28.61,-345.92 32.23,-355.88 35.61,-345.84 28.61,-345.92"/>
<text text-anchor="middle" x="35.43" y="-283.3" font-family="Times New Roman,serif" font-size="14.00">b</text>
</g>
<!-- 3 -->
<g id="node6" class="node">
<title>3</title>
<ellipse fill="none" stroke="black" cx="62.43" cy="-113" rx="27" ry="18"/>
<text text-anchor="middle" x="62.43" y="-109.3" font-family="Times New Roman,serif" font-size="14.00">3</text>
</g>
<!-- 2&#45;&gt;3 -->
<g id="edge5" class="edge">
<title>2&#45;&gt;3</title>
<path fill="none" stroke="black" d="M36.75,-182.21C41.26,-170.22 47.42,-153.85 52.58,-140.16"/>
<polygon fill="black" stroke="black" points="55.87,-141.35 56.12,-130.76 49.32,-138.88 55.87,-141.35"/>
<text text-anchor="middle" x="50.93" y="-152.8" font-family="Times New Roman,serif" font-size="14.00">a</text>
</g>
<!-- 0&#45;&gt;1 -->
<g id="edge11" class="edge">
<title>0&#45;&gt;1</title>
<path fill="none" stroke="black" d="M42.4,-357.01C50.17,-344.55 61.1,-327.01 70,-312.74"/>
<polygon fill="black" stroke="black" points="73.18,-314.25 75.5,-303.92 67.24,-310.55 73.18,-314.25"/>
<text text-anchor="middle" x="64.93" y="-326.8" font-family="Times New Roman,serif" font-size="14.00">a</text>
</g>
<!-- 0&#45;&gt;2 -->
<g id="edge2" class="edge">
<title>0&#45;&gt;2</title>
<path fill="none" stroke="black" d="M23.02,-356.88C15.78,-343.49 6.37,-323.69 2.43,-305 -0.87,-289.34 -0.68,-284.7 2.43,-269 5.32,-254.37 11.4,-238.94 17.16,-226.48"/>
<polygon fill="black" stroke="black" points="20.44,-227.73 21.64,-217.2 14.14,-224.68 20.44,-227.73"/>
<text text-anchor="middle" x="6.43" y="-283.3" font-family="Times New Roman,serif" font-size="14.00">b</text>
</g>
<!-- 3&#45;&gt;1 -->
<g id="edge7" class="edge">
<title>3&#45;&gt;1</title>
<path fill="none" stroke="black" d="M64.71,-131.05C68.7,-160.88 76.97,-222.76 81.77,-258.64"/>
<polygon fill="black" stroke="black" points="78.34,-259.43 83.14,-268.88 85.28,-258.5 78.34,-259.43"/>
<text text-anchor="middle" x="78.93" y="-196.3" font-family="Times New Roman,serif" font-size="14.00">a</text>
</g>
<!-- 3&#45;&gt;4 -->
<g id="edge8" class="edge">
<title>3&#45;&gt;4</title>
<path fill="none" stroke="black" d="M62.43,-94.84C62.43,-83.44 62.43,-68.13 62.43,-54.58"/>
<polygon fill="black" stroke="black" points="65.93,-54.19 62.43,-44.19 58.93,-54.19 65.93,-54.19"/>
<text text-anchor="middle" x="66.43" y="-65.8" font-family="Times New Roman,serif" font-size="14.00">b</text>
</g>
</g>
</svg>
