<?xml version="1.0" encoding="UTF-8" standalone="no"?>
<!DOCTYPE svg PUBLIC "-//W3C//DTD SVG 1.1//EN"
 "http://www.w3.org/Graphics/SVG/1.1/DTD/svg11.dtd">
<!-- Generated by graphviz version 2.46.0 (20210118.1747)
 -->
<!-- Pages: 1 -->
<svg width="212pt" height="473pt"
 viewBox="0.00 0.00 212.00 473.00" xmlns="http://www.w3.org/2000/svg" xmlns:xlink="http://www.w3.org/1999/xlink">
<g id="graph0" class="graph" transform="scale(1 1) rotate(0) translate(4 469)">
<polygon fill="white" stroke="transparent" points="-4,4 -4,-469 208,-469 208,4 -4,4"/>
<!-- fake -->
<g id="node1" class="node">
<title>fake</title>
</g>
<!-- 0 -->
<g id="node5" class="node">
<title>0</title>
<ellipse fill="none" stroke="black" cx="80" cy="-374" rx="27" ry="18"/>
<text text-anchor="middle" x="80" y="-370.3" font-family="Times New Roman,serif" font-size="14.00">0</text>
</g>
<!-- fake&#45;&gt;0 -->
<g id="edge1" class="edge">
<title>fake&#45;&gt;0</title>
<path fill="none" stroke="black" stroke-width="2" d="M80,-428.81C80,-420.79 80,-411.05 80,-402.07"/>
<polygon fill="black" stroke="black" stroke-width="2" points="83.5,-402.03 80,-392.03 76.5,-402.03 83.5,-402.03"/>
</g>
<!-- 1 -->
<g id="node2" class="node">
<title>1</title>
<ellipse fill="none" stroke="black" cx="80" cy="-287" rx="27" ry="18"/>
<text text-anchor="middle" x="80" y="-283.3" font-family="Times New Roman,serif" font-size="14.00">1</text>
</g>
<!-- 1&#45;&gt;1 -->
<g id="edge3" class="edge">
<title>1&#45;&gt;1</title>
<path fill="none" stroke="black" d="M104.53,-294.75C115.51,-295.49 125,-292.91 125,-287 125,-283.03 120.72,-280.56 114.57,-279.59"/>
<polygon fill="black" stroke="black" points="114.65,-276.09 104.53,-279.25 114.41,-283.09 114.65,-276.09"/>
<text text-anchor="middle" x="128.5" y="-283.3" font-family="Times New Roman,serif" font-size="14.00">a</text>
</g>
<!-- 2 -->
<g id="node4" class="node">
<title>2</title>
<ellipse fill="none" stroke="black" cx="27" cy="-200" rx="27" ry="18"/>
<text text-anchor="middle" x="27" y="-196.3" font-family="Times New Roman,serif" font-size="14.00">2</text>
</g>
<!-- 1&#45;&gt;2 -->
<g id="edge4" class="edge">
<title>1&#45;&gt;2</title>
<path fill="none" stroke="black" d="M70.03,-270.01C62.26,-257.55 51.33,-240.01 42.43,-225.74"/>
<polygon fill="black" stroke="black" points="45.19,-223.55 36.92,-216.92 39.25,-227.25 45.19,-223.55"/>
<text text-anchor="middle" x="61" y="-239.8" font-family="Times New Roman,serif" font-size="14.00">b</text>
</g>
<!-- 4 -->
<g id="node3" class="node">
<title>4</title>
<ellipse fill="none" stroke="black" cx="59" cy="-22" rx="18" ry="18"/>
<ellipse fill="none" stroke="black" cx="59" cy="-22" rx="22" ry="22"/>
<text text-anchor="middle" x="59" y="-18.3" font-family="Times New Roman,serif" font-size="14.00">4</text>
</g>
<!-- 4&#45;&gt;4 -->
<g id="edge9" class="edge">
<title>4&#45;&gt;4</title>
<path fill="none" stroke="black" d="M80.81,-26.25C90.56,-26.65 99,-25.23 99,-22 99,-19.98 95.7,-18.67 90.85,-18.07"/>
<polygon fill="black" stroke="black" points="90.91,-14.57 80.81,-17.75 90.69,-21.56 90.91,-14.57"/>
<text text-anchor="middle" x="102.5" y="-18.3" font-family="Times New Roman,serif" font-size="14.00">a</text>
</g>
<!-- 4&#45;&gt;4 -->
<g id="edge10" class="edge">
<title>4&#45;&gt;4</title>
<path fill="none" stroke="black" d="M79.81,-29.2C97.88,-32.49 117,-30.09 117,-22 117,-15.43 104.38,-12.61 89.96,-13.55"/>
<polygon fill="black" stroke="black" points="89.31,-10.1 79.81,-14.8 90.17,-17.05 89.31,-10.1"/>
<text text-anchor="middle" x="121" y="-18.3" font-family="Times New Roman,serif" font-size="14.00">b</text>
</g>
<!-- 2&#45;&gt;0 -->
<g id="edge6" class="edge">
<title>2&#45;&gt;0</title>
<path fill="none" stroke="black" d="M25.99,-218.09C25.31,-239.13 25.95,-275.68 36,-305 41.56,-321.21 51.8,-337.4 61,-349.91"/>
<polygon fill="black" stroke="black" points="58.28,-352.12 67.13,-357.94 63.84,-347.87 58.28,-352.12"/>
<text text-anchor="middle" x="40" y="-283.3" font-family="Times New Roman,serif" font-size="14.00">b</text>
</g>
<!-- 3 -->
<g id="node6" class="node">
<title>3</title>
<ellipse fill="none" stroke="black" cx="59" cy="-113" rx="27" ry="18"/>
<text text-anchor="middle" x="59" y="-109.3" font-family="Times New Roman,serif" font-size="14.00">3</text>
</g>
<!-- 2&#45;&gt;3 -->
<g id="edge5" class="edge">
<title>2&#45;&gt;3</title>
<path fill="none" stroke="black" d="M33.32,-182.21C37.84,-170.22 44,-153.85 49.15,-140.16"/>
<polygon fill="black" stroke="black" points="52.44,-141.35 52.69,-130.76 45.89,-138.88 52.44,-141.35"/>
<text text-anchor="middle" x="48.5" y="-152.8" font-family="Times New Roman,serif" font-size="14.00">a</text>
</g>
<!-- 0&#45;&gt;1 -->
<g id="edge2" class="edge">
<title>0&#45;&gt;1</title>
<path fill="none" stroke="black" d="M80,-355.8C80,-344.16 80,-328.55 80,-315.24"/>
<polygon fill="black" stroke="black" points="83.5,-315.18 80,-305.18 76.5,-315.18 83.5,-315.18"/>
<text text-anchor="middle" x="83.5" y="-326.8" font-family="Times New Roman,serif" font-size="14.00">ε</text>
</g>
<!-- 21 -->
<g id="node7" class="node">
<title>21</title>
<ellipse fill="none" stroke="black" cx="177" cy="-287" rx="27" ry="18"/>
<text text-anchor="middle" x="177" y="-283.3" font-family="Times New Roman,serif" font-size="14.00">21</text>
</g>
<!-- 0&#45;&gt;21 -->
<g id="edge11" class="edge">
<title>0&#45;&gt;21</title>
<path fill="none" stroke="black" d="M96.02,-358.96C111.7,-345.22 135.76,-324.14 153.58,-308.52"/>
<polygon fill="black" stroke="black" points="156.07,-311 161.28,-301.77 151.45,-305.73 156.07,-311"/>
<text text-anchor="middle" x="138" y="-326.8" font-family="Times New Roman,serif" font-size="14.00">b</text>
</g>
<!-- 3&#45;&gt;1 -->
<g id="edge7" class="edge">
<title>3&#45;&gt;1</title>
<path fill="none" stroke="black" d="M61.08,-131.05C64.72,-160.88 72.28,-222.76 76.66,-258.64"/>
<polygon fill="black" stroke="black" points="73.22,-259.38 77.91,-268.88 80.17,-258.53 73.22,-259.38"/>
<text text-anchor="middle" x="75.5" y="-196.3" font-family="Times New Roman,serif" font-size="14.00">a</text>
</g>
<!-- 3&#45;&gt;4 -->
<g id="edge8" class="edge">
<title>3&#45;&gt;4</title>
<path fill="none" stroke="black" d="M59,-94.84C59,-83.44 59,-68.13 59,-54.58"/>
<polygon fill="black" stroke="black" points="62.5,-54.19 59,-44.19 55.5,-54.19 62.5,-54.19"/>
<text text-anchor="middle" x="63" y="-65.8" font-family="Times New Roman,serif" font-size="14.00">b</text>
</g>
</g>
</svg>
