<?xml version="1.0" encoding="UTF-8" standalone="no"?>
<!DOCTYPE svg PUBLIC "-//W3C//DTD SVG 1.1//EN"
 "http://www.w3.org/Graphics/SVG/1.1/DTD/svg11.dtd">
<!-- Generated by graphviz version 2.46.0 (20210118.1747)
 -->
<!-- Pages: 1 -->
<svg width="358pt" height="313pt"
 viewBox="0.00 0.00 358.00 313.00" xmlns="http://www.w3.org/2000/svg" xmlns:xlink="http://www.w3.org/1999/xlink">
<g id="graph0" class="graph" transform="scale(1 1) rotate(0) translate(4 309)">
<polygon fill="white" stroke="transparent" points="-4,4 -4,-309 354,-309 354,4 -4,4"/>
<!-- fake -->
<g id="node1" class="node">
<title>fake</title>
</g>
<!-- 0 -->
<g id="node7" class="node">
<title>0</title>
<ellipse fill="none" stroke="black" cx="27" cy="-196" rx="27" ry="18"/>
<text text-anchor="middle" x="27" y="-192.3" font-family="Times New Roman,serif" font-size="14.00">0</text>
</g>
<!-- fake&#45;&gt;0 -->
<g id="edge1" class="edge">
<title>fake&#45;&gt;0</title>
<path fill="none" stroke="black" stroke-width="2" d="M27,-268.84C27,-256.28 27,-238.98 27,-224.5"/>
<polygon fill="black" stroke="black" stroke-width="2" points="30.5,-224.11 27,-214.11 23.5,-224.11 30.5,-224.11"/>
</g>
<!-- 3 -->
<g id="node2" class="node">
<title>3</title>
<ellipse fill="none" stroke="black" cx="212" cy="-287" rx="27" ry="18"/>
<text text-anchor="middle" x="212" y="-283.3" font-family="Times New Roman,serif" font-size="14.00">3</text>
</g>
<!-- 4 -->
<g id="node4" class="node">
<title>4</title>
<ellipse fill="none" stroke="black" cx="94" cy="-196" rx="18" ry="18"/>
<ellipse fill="none" stroke="black" cx="94" cy="-196" rx="22" ry="22"/>
<text text-anchor="middle" x="94" y="-192.3" font-family="Times New Roman,serif" font-size="14.00">4</text>
</g>
<!-- 3&#45;&gt;4 -->
<g id="edge7" class="edge">
<title>3&#45;&gt;4</title>
<path fill="none" stroke="black" d="M194.84,-273.06C175,-258.1 142.16,-233.33 119.37,-216.14"/>
<polygon fill="black" stroke="black" points="121.27,-213.18 111.18,-209.96 117.06,-218.77 121.27,-213.18"/>
<text text-anchor="middle" x="168" y="-239.8" font-family="Times New Roman,serif" font-size="14.00">b</text>
</g>
<!-- 1 -->
<g id="node5" class="node">
<title>1</title>
<ellipse fill="none" stroke="black" cx="212" cy="-196" rx="27" ry="18"/>
<text text-anchor="middle" x="212" y="-192.3" font-family="Times New Roman,serif" font-size="14.00">1</text>
</g>
<!-- 3&#45;&gt;1 -->
<g id="edge6" class="edge">
<title>3&#45;&gt;1</title>
<path fill="none" stroke="black" d="M212,-268.84C212,-256.28 212,-238.98 212,-224.5"/>
<polygon fill="black" stroke="black" points="215.5,-224.11 212,-214.11 208.5,-224.11 215.5,-224.11"/>
<text text-anchor="middle" x="215.5" y="-239.8" font-family="Times New Roman,serif" font-size="14.00">a</text>
</g>
<!-- sink -->
<g id="node3" class="node">
<title>sink</title>
<ellipse fill="none" stroke="black" cx="272" cy="-18" rx="27" ry="18"/>
<text text-anchor="middle" x="272" y="-14.3" font-family="Times New Roman,serif" font-size="14.00">sink</text>
</g>
<!-- sink&#45;&gt;sink -->
<g id="edge10" class="edge">
<title>sink&#45;&gt;sink</title>
<path fill="none" stroke="black" d="M298.79,-21.93C308.78,-22.06 317,-20.75 317,-18 317,-16.28 313.79,-15.13 308.94,-14.53"/>
<polygon fill="black" stroke="black" points="308.94,-11.03 298.79,-14.07 308.63,-18.02 308.94,-11.03"/>
<text text-anchor="middle" x="320.5" y="-14.3" font-family="Times New Roman,serif" font-size="14.00">a</text>
</g>
<!-- sink&#45;&gt;sink -->
<g id="edge11" class="edge">
<title>sink&#45;&gt;sink</title>
<path fill="none" stroke="black" d="M297.23,-24.94C316.04,-27.37 335,-25.05 335,-18 335,-12.21 322.24,-9.62 307.27,-10.21"/>
<polygon fill="black" stroke="black" points="306.9,-6.73 297.23,-11.06 307.49,-13.7 306.9,-6.73"/>
<text text-anchor="middle" x="339" y="-14.3" font-family="Times New Roman,serif" font-size="14.00">b</text>
</g>
<!-- 4&#45;&gt;4 -->
<g id="edge8" class="edge">
<title>4&#45;&gt;4</title>
<path fill="none" stroke="black" d="M115.81,-200.25C125.56,-200.65 134,-199.23 134,-196 134,-193.98 130.7,-192.67 125.85,-192.07"/>
<polygon fill="black" stroke="black" points="125.91,-188.57 115.81,-191.75 125.69,-195.56 125.91,-188.57"/>
<text text-anchor="middle" x="137.5" y="-192.3" font-family="Times New Roman,serif" font-size="14.00">a</text>
</g>
<!-- 4&#45;&gt;4 -->
<g id="edge9" class="edge">
<title>4&#45;&gt;4</title>
<path fill="none" stroke="black" d="M114.81,-203.2C132.88,-206.49 152,-204.09 152,-196 152,-189.43 139.38,-186.61 124.96,-187.55"/>
<polygon fill="black" stroke="black" points="124.31,-184.1 114.81,-188.8 125.17,-191.05 124.31,-184.1"/>
<text text-anchor="middle" x="156" y="-192.3" font-family="Times New Roman,serif" font-size="14.00">b</text>
</g>
<!-- 1&#45;&gt;1 -->
<g id="edge2" class="edge">
<title>1&#45;&gt;1</title>
<path fill="none" stroke="black" d="M236.07,-204.45C247.24,-205.38 257,-202.56 257,-196 257,-191.59 252.6,-188.88 246.32,-187.85"/>
<polygon fill="black" stroke="black" points="246.17,-184.34 236.07,-187.55 245.97,-191.34 246.17,-184.34"/>
<text text-anchor="middle" x="260.5" y="-192.3" font-family="Times New Roman,serif" font-size="14.00">a</text>
</g>
<!-- 2 -->
<g id="node6" class="node">
<title>2</title>
<ellipse fill="none" stroke="black" cx="272" cy="-105" rx="27" ry="18"/>
<text text-anchor="middle" x="272" y="-101.3" font-family="Times New Roman,serif" font-size="14.00">2</text>
</g>
<!-- 1&#45;&gt;2 -->
<g id="edge3" class="edge">
<title>1&#45;&gt;2</title>
<path fill="none" stroke="black" d="M222.73,-179.09C231.86,-165.55 245.12,-145.88 255.58,-130.36"/>
<polygon fill="black" stroke="black" points="258.68,-132.02 261.37,-121.77 252.87,-128.11 258.68,-132.02"/>
<text text-anchor="middle" x="252" y="-144.8" font-family="Times New Roman,serif" font-size="14.00">b</text>
</g>
<!-- 2&#45;&gt;3 -->
<g id="edge4" class="edge">
<title>2&#45;&gt;3</title>
<path fill="none" stroke="black" d="M275.89,-123C280.23,-145.55 285.17,-186.22 273,-218 265.7,-237.07 250.32,-254.15 236.83,-266.43"/>
<polygon fill="black" stroke="black" points="234.43,-263.88 229.18,-273.08 239.02,-269.16 234.43,-263.88"/>
<text text-anchor="middle" x="284.5" y="-192.3" font-family="Times New Roman,serif" font-size="14.00">a</text>
</g>
<!-- 2&#45;&gt;sink -->
<g id="edge5" class="edge">
<title>2&#45;&gt;sink</title>
<path fill="none" stroke="black" d="M272,-86.8C272,-75.16 272,-59.55 272,-46.24"/>
<polygon fill="black" stroke="black" points="275.5,-46.18 272,-36.18 268.5,-46.18 275.5,-46.18"/>
<text text-anchor="middle" x="276" y="-57.8" font-family="Times New Roman,serif" font-size="14.00">b</text>
</g>
</g>
</svg>
