<?xml version="1.0" encoding="UTF-8" standalone="no"?>
<!DOCTYPE svg PUBLIC "-//W3C//DTD SVG 1.1//EN"
 "http://www.w3.org/Graphics/SVG/1.1/DTD/svg11.dtd">
<!-- Generated by graphviz version 2.46.0 (20210118.1747)
 -->
<!-- Pages: 1 -->
<svg width="567pt" height="922pt"
 viewBox="0.00 0.00 567.00 922.00" xmlns="http://www.w3.org/2000/svg" xmlns:xlink="http://www.w3.org/1999/xlink">
<g id="graph0" class="graph" transform="scale(1 1) rotate(0) translate(4 918)">
<polygon fill="white" stroke="transparent" points="-4,4 -4,-918 563,-918 563,4 -4,4"/>
<!-- fake -->
<g id="node1" class="node">
<title>fake</title>
</g>
<!-- 0 -->
<g id="node9" class="node">
<title>0</title>
<ellipse fill="none" stroke="black" cx="208" cy="-809" rx="27" ry="18"/>
<text text-anchor="middle" x="208" y="-805.3" font-family="Times New Roman,serif" font-size="14.00">0</text>
</g>
<!-- fake&#45;&gt;0 -->
<g id="edge1" class="edge">
<title>fake&#45;&gt;0</title>
<path fill="none" stroke="black" stroke-width="2" d="M208,-877.8C208,-866.16 208,-850.55 208,-837.24"/>
<polygon fill="black" stroke="black" stroke-width="2" points="211.5,-837.18 208,-827.18 204.5,-837.18 211.5,-837.18"/>
</g>
<!-- 18 -->
<g id="node2" class="node">
<title>18</title>
<ellipse fill="none" stroke="black" cx="306" cy="-109" rx="27" ry="18"/>
<text text-anchor="middle" x="306" y="-105.3" font-family="Times New Roman,serif" font-size="14.00">18</text>
</g>
<!-- 18&#45;&gt;18 -->
<g id="edge74" class="edge">
<title>18&#45;&gt;18</title>
<path fill="none" stroke="black" d="M332.35,-113.3C342.53,-113.49 351,-112.05 351,-109 351,-107.04 347.53,-105.75 342.35,-105.13"/>
<polygon fill="black" stroke="black" points="342.49,-101.63 332.35,-104.7 342.19,-108.62 342.49,-101.63"/>
<text text-anchor="middle" x="354.5" y="-105.3" font-family="Times New Roman,serif" font-size="14.00">s</text>
</g>
<!-- 18&#45;&gt;18 -->
<g id="edge75" class="edge">
<title>18&#45;&gt;18</title>
<path fill="none" stroke="black" d="M330.57,-116.51C349.6,-119.32 369,-116.82 369,-109 369,-102.59 355.94,-99.75 340.75,-100.49"/>
<polygon fill="black" stroke="black" points="340.18,-97.03 330.57,-101.49 340.87,-103.99 340.18,-97.03"/>
<text text-anchor="middle" x="372.5" y="-105.3" font-family="Times New Roman,serif" font-size="14.00">e</text>
</g>
<!-- 19 -->
<g id="node6" class="node">
<title>19</title>
<ellipse fill="none" stroke="black" cx="372" cy="-200" rx="27" ry="18"/>
<text text-anchor="middle" x="372" y="-196.3" font-family="Times New Roman,serif" font-size="14.00">19</text>
</g>
<!-- 18&#45;&gt;19 -->
<g id="edge73" class="edge">
<title>18&#45;&gt;19</title>
<path fill="none" stroke="black" d="M317.59,-125.62C327.77,-139.36 342.75,-159.56 354.42,-175.29"/>
<polygon fill="black" stroke="black" points="351.74,-177.55 360.5,-183.5 357.36,-173.38 351.74,-177.55"/>
<text text-anchor="middle" x="348.5" y="-152.8" font-family="Times New Roman,serif" font-size="14.00">n</text>
</g>
<!-- 17 -->
<g id="node13" class="node">
<title>17</title>
<ellipse fill="none" stroke="black" cx="306" cy="-18" rx="27" ry="18"/>
<text text-anchor="middle" x="306" y="-14.3" font-family="Times New Roman,serif" font-size="14.00">17</text>
</g>
<!-- 18&#45;&gt;17 -->
<g id="edge76" class="edge">
<title>18&#45;&gt;17</title>
<path fill="none" stroke="black" d="M297.82,-91.58C293.5,-80.94 289.55,-66.74 292,-54 292.59,-50.95 293.44,-47.83 294.43,-44.76"/>
<polygon fill="black" stroke="black" points="297.73,-45.93 297.97,-35.34 291.18,-43.48 297.73,-45.93"/>
<text text-anchor="middle" x="297" y="-57.8" font-family="Times New Roman,serif" font-size="14.00">w</text>
</g>
<!-- sink -->
<g id="node3" class="node">
<title>sink</title>
<ellipse fill="none" stroke="black" cx="157" cy="-722" rx="27" ry="18"/>
<text text-anchor="middle" x="157" y="-718.3" font-family="Times New Roman,serif" font-size="14.00">sink</text>
</g>
<!-- sink&#45;&gt;sink -->
<g id="edge85" class="edge">
<title>sink&#45;&gt;sink</title>
<path fill="none" stroke="black" d="M184.24,-723.97C194.02,-724.01 202,-723.35 202,-722 202,-721.18 199.04,-720.61 194.51,-720.3"/>
<polygon fill="black" stroke="black" points="194.33,-716.8 184.24,-720.03 194.15,-723.79 194.33,-716.8"/>
<text text-anchor="middle" x="207" y="-718.3" font-family="Times New Roman,serif" font-size="14.00">w</text>
</g>
<!-- sink&#45;&gt;sink -->
<g id="edge86" class="edge">
<title>sink&#45;&gt;sink</title>
<path fill="none" stroke="black" d="M183.54,-725.55C201.91,-726.63 220,-725.45 220,-722 220,-719.2 208.06,-717.89 193.73,-718.08"/>
<polygon fill="black" stroke="black" points="193.41,-714.59 183.54,-718.45 193.66,-721.58 193.41,-714.59"/>
<text text-anchor="middle" x="223.5" y="-718.3" font-family="Times New Roman,serif" font-size="14.00">e</text>
</g>
<!-- sink&#45;&gt;sink -->
<g id="edge87" class="edge">
<title>sink&#45;&gt;sink</title>
<path fill="none" stroke="black" d="M183.13,-726.65C209.19,-729.3 238,-727.75 238,-722 238,-716.99 216.14,-715.17 193.28,-716.53"/>
<polygon fill="black" stroke="black" points="192.82,-713.06 183.13,-717.35 193.38,-720.04 192.82,-713.06"/>
<text text-anchor="middle" x="241.5" y="-718.3" font-family="Times New Roman,serif" font-size="14.00">n</text>
</g>
<!-- sink&#45;&gt;sink -->
<g id="edge88" class="edge">
<title>sink&#45;&gt;sink</title>
<path fill="none" stroke="black" d="M182.86,-727.45C216.12,-731.98 256,-730.16 256,-722 256,-714.67 223.81,-712.46 193.15,-715.36"/>
<polygon fill="black" stroke="black" points="192.39,-711.93 182.86,-716.55 193.19,-718.88 192.39,-711.93"/>
<text text-anchor="middle" x="259.5" y="-718.3" font-family="Times New Roman,serif" font-size="14.00">s</text>
</g>
<!-- 16 -->
<g id="node4" class="node">
<title>16</title>
<ellipse fill="none" stroke="black" cx="169" cy="-374" rx="27" ry="18"/>
<text text-anchor="middle" x="169" y="-370.3" font-family="Times New Roman,serif" font-size="14.00">16</text>
</g>
<!-- 16&#45;&gt;16 -->
<g id="edge65" class="edge">
<title>16&#45;&gt;16</title>
<path fill="none" stroke="black" d="M195.79,-376.62C205.78,-376.71 214,-375.83 214,-374 214,-372.85 210.79,-372.08 205.94,-371.69"/>
<polygon fill="black" stroke="black" points="205.9,-368.19 195.79,-371.38 205.68,-375.18 205.9,-368.19"/>
<text text-anchor="middle" x="217.5" y="-370.3" font-family="Times New Roman,serif" font-size="14.00">n</text>
</g>
<!-- 16&#45;&gt;16 -->
<g id="edge66" class="edge">
<title>16&#45;&gt;16</title>
<path fill="none" stroke="black" d="M195.21,-378.71C213.7,-380.19 232,-378.62 232,-374 232,-370.25 219.92,-368.5 205.47,-368.78"/>
<polygon fill="black" stroke="black" points="205.03,-365.3 195.21,-369.29 205.38,-372.29 205.03,-365.3"/>
<text text-anchor="middle" x="235.5" y="-370.3" font-family="Times New Roman,serif" font-size="14.00">s</text>
</g>
<!-- 16&#45;&gt;16 -->
<g id="edge67" class="edge">
<title>16&#45;&gt;16</title>
<path fill="none" stroke="black" d="M194.71,-380.14C220.88,-383.76 250,-381.71 250,-374 250,-367.28 227.9,-364.86 204.91,-366.74"/>
<polygon fill="black" stroke="black" points="204.27,-363.29 194.71,-367.86 205.03,-370.25 204.27,-363.29"/>
<text text-anchor="middle" x="253.5" y="-370.3" font-family="Times New Roman,serif" font-size="14.00">e</text>
</g>
<!-- 15 -->
<g id="node19" class="node">
<title>15</title>
<ellipse fill="none" stroke="black" cx="113" cy="-461" rx="27" ry="18"/>
<text text-anchor="middle" x="113" y="-457.3" font-family="Times New Roman,serif" font-size="14.00">15</text>
</g>
<!-- 16&#45;&gt;15 -->
<g id="edge68" class="edge">
<title>16&#45;&gt;15</title>
<path fill="none" stroke="black" d="M163.26,-391.98C159.45,-402.04 153.89,-414.77 147,-425 143.81,-429.74 139.93,-434.42 135.96,-438.73"/>
<polygon fill="black" stroke="black" points="133.31,-436.44 128.83,-446.04 138.32,-441.33 133.31,-436.44"/>
<text text-anchor="middle" x="161" y="-413.8" font-family="Times New Roman,serif" font-size="14.00">w</text>
</g>
<!-- 11 -->
<g id="node5" class="node">
<title>11</title>
<ellipse fill="none" stroke="black" cx="57" cy="-722" rx="27" ry="18"/>
<text text-anchor="middle" x="57" y="-718.3" font-family="Times New Roman,serif" font-size="14.00">11</text>
</g>
<!-- 11&#45;&gt;11 -->
<g id="edge48" class="edge">
<title>11&#45;&gt;11</title>
<path fill="none" stroke="black" d="M81.53,-729.75C92.51,-730.49 102,-727.91 102,-722 102,-718.03 97.72,-715.56 91.57,-714.59"/>
<polygon fill="black" stroke="black" points="91.65,-711.09 81.53,-714.25 91.41,-718.09 91.65,-711.09"/>
<text text-anchor="middle" x="107" y="-718.3" font-family="Times New Roman,serif" font-size="14.00">w</text>
</g>
<!-- 11&#45;&gt;0 -->
<g id="edge45" class="edge">
<title>11&#45;&gt;0</title>
<path fill="none" stroke="black" d="M77.98,-733.58C91.27,-740.38 108.76,-749.49 124,-758 142.83,-768.51 163.66,-780.91 179.87,-790.72"/>
<polygon fill="black" stroke="black" points="178.46,-793.97 188.83,-796.17 182.1,-787.99 178.46,-793.97"/>
<text text-anchor="middle" x="153.5" y="-761.8" font-family="Times New Roman,serif" font-size="14.00">n</text>
</g>
<!-- 13 -->
<g id="node12" class="node">
<title>13</title>
<ellipse fill="none" stroke="black" cx="44" cy="-374" rx="27" ry="18"/>
<text text-anchor="middle" x="44" y="-370.3" font-family="Times New Roman,serif" font-size="14.00">13</text>
</g>
<!-- 11&#45;&gt;13 -->
<g id="edge46" class="edge">
<title>11&#45;&gt;13</title>
<path fill="none" stroke="black" d="M40.51,-707.53C23.68,-692.15 0,-665.32 0,-636 0,-636 0,-636 0,-460 0,-437.15 12.7,-414.32 24.45,-398.08"/>
<polygon fill="black" stroke="black" points="27.51,-399.85 30.8,-389.78 21.94,-395.6 27.51,-399.85"/>
<text text-anchor="middle" x="3.5" y="-544.3" font-family="Times New Roman,serif" font-size="14.00">s</text>
</g>
<!-- 12 -->
<g id="node22" class="node">
<title>12</title>
<ellipse fill="none" stroke="black" cx="114" cy="-635" rx="27" ry="18"/>
<text text-anchor="middle" x="114" y="-631.3" font-family="Times New Roman,serif" font-size="14.00">12</text>
</g>
<!-- 11&#45;&gt;12 -->
<g id="edge47" class="edge">
<title>11&#45;&gt;12</title>
<path fill="none" stroke="black" d="M63.57,-704.08C67.84,-694.05 73.91,-681.32 81,-671 84.19,-666.35 87.99,-661.72 91.86,-657.42"/>
<polygon fill="black" stroke="black" points="94.45,-659.78 98.78,-650.11 89.37,-654.97 94.45,-659.78"/>
<text text-anchor="middle" x="84.5" y="-674.8" font-family="Times New Roman,serif" font-size="14.00">e</text>
</g>
<!-- 19&#45;&gt;18 -->
<g id="edge78" class="edge">
<title>19&#45;&gt;18</title>
<path fill="none" stroke="black" d="M351.96,-187.88C342.66,-181.86 332.12,-173.67 325,-164 319.18,-156.09 315.02,-146.24 312.11,-137.13"/>
<polygon fill="black" stroke="black" points="315.42,-135.97 309.33,-127.3 308.68,-137.87 315.42,-135.97"/>
<text text-anchor="middle" x="328.5" y="-152.8" font-family="Times New Roman,serif" font-size="14.00">s</text>
</g>
<!-- 19&#45;&gt;19 -->
<g id="edge79" class="edge">
<title>19&#45;&gt;19</title>
<path fill="none" stroke="black" d="M396.53,-207.75C407.51,-208.49 417,-205.91 417,-200 417,-196.03 412.72,-193.56 406.57,-192.59"/>
<polygon fill="black" stroke="black" points="406.65,-189.09 396.53,-192.25 406.41,-196.09 406.65,-189.09"/>
<text text-anchor="middle" x="420.5" y="-196.3" font-family="Times New Roman,serif" font-size="14.00">e</text>
</g>
<!-- 3 -->
<g id="node11" class="node">
<title>3</title>
<ellipse fill="none" stroke="black" cx="423" cy="-109" rx="18" ry="18"/>
<ellipse fill="none" stroke="black" cx="423" cy="-109" rx="22" ry="22"/>
<text text-anchor="middle" x="423" y="-105.3" font-family="Times New Roman,serif" font-size="14.00">3</text>
</g>
<!-- 19&#45;&gt;3 -->
<g id="edge77" class="edge">
<title>19&#45;&gt;3</title>
<path fill="none" stroke="black" d="M377.33,-182.22C380.84,-172.24 385.9,-159.51 392,-149 394.93,-143.95 398.47,-138.85 402.1,-134.08"/>
<polygon fill="black" stroke="black" points="405.1,-135.93 408.6,-125.93 399.63,-131.57 405.1,-135.93"/>
<text text-anchor="middle" x="395.5" y="-152.8" font-family="Times New Roman,serif" font-size="14.00">n</text>
</g>
<!-- 20 -->
<g id="node16" class="node">
<title>20</title>
<ellipse fill="none" stroke="black" cx="372" cy="-287" rx="27" ry="18"/>
<text text-anchor="middle" x="372" y="-283.3" font-family="Times New Roman,serif" font-size="14.00">20</text>
</g>
<!-- 19&#45;&gt;20 -->
<g id="edge80" class="edge">
<title>19&#45;&gt;20</title>
<path fill="none" stroke="black" d="M372,-218.18C372,-229.81 372,-245.42 372,-258.73"/>
<polygon fill="black" stroke="black" points="368.5,-258.8 372,-268.8 375.5,-258.8 368.5,-258.8"/>
<text text-anchor="middle" x="377" y="-239.8" font-family="Times New Roman,serif" font-size="14.00">w</text>
</g>
<!-- 7 -->
<g id="node7" class="node">
<title>7</title>
<ellipse fill="none" stroke="black" cx="217" cy="-548" rx="27" ry="18"/>
<text text-anchor="middle" x="217" y="-544.3" font-family="Times New Roman,serif" font-size="14.00">7</text>
</g>
<!-- 7&#45;&gt;7 -->
<g id="edge29" class="edge">
<title>7&#45;&gt;7</title>
<path fill="none" stroke="black" d="M243.79,-550.62C253.78,-550.71 262,-549.83 262,-548 262,-546.85 258.79,-546.08 253.94,-545.69"/>
<polygon fill="black" stroke="black" points="253.9,-542.19 243.79,-545.38 253.68,-549.18 253.9,-542.19"/>
<text text-anchor="middle" x="265.5" y="-544.3" font-family="Times New Roman,serif" font-size="14.00">n</text>
</g>
<!-- 7&#45;&gt;7 -->
<g id="edge31" class="edge">
<title>7&#45;&gt;7</title>
<path fill="none" stroke="black" d="M243.21,-552.71C261.7,-554.19 280,-552.62 280,-548 280,-544.25 267.92,-542.5 253.47,-542.78"/>
<polygon fill="black" stroke="black" points="253.03,-539.3 243.21,-543.29 253.38,-546.29 253.03,-539.3"/>
<text text-anchor="middle" x="283.5" y="-544.3" font-family="Times New Roman,serif" font-size="14.00">e</text>
</g>
<!-- 7&#45;&gt;7 -->
<g id="edge32" class="edge">
<title>7&#45;&gt;7</title>
<path fill="none" stroke="black" d="M242.71,-554.14C268.88,-557.76 298,-555.71 298,-548 298,-541.28 275.9,-538.86 252.91,-540.74"/>
<polygon fill="black" stroke="black" points="252.27,-537.29 242.71,-541.86 253.03,-544.25 252.27,-537.29"/>
<text text-anchor="middle" x="303" y="-544.3" font-family="Times New Roman,serif" font-size="14.00">w</text>
</g>
<!-- 7&#45;&gt;12 -->
<g id="edge30" class="edge">
<title>7&#45;&gt;12</title>
<path fill="none" stroke="black" d="M206.81,-564.77C199.43,-575.34 188.72,-589.1 177,-599 167.46,-607.06 155.79,-614.15 145.1,-619.81"/>
<polygon fill="black" stroke="black" points="143.37,-616.76 136.03,-624.4 146.53,-623 143.37,-616.76"/>
<text text-anchor="middle" x="195.5" y="-587.8" font-family="Times New Roman,serif" font-size="14.00">s</text>
</g>
<!-- 6 -->
<g id="node8" class="node">
<title>6</title>
<ellipse fill="none" stroke="black" cx="372" cy="-374" rx="27" ry="18"/>
<text text-anchor="middle" x="372" y="-370.3" font-family="Times New Roman,serif" font-size="14.00">6</text>
</g>
<!-- 6&#45;&gt;6 -->
<g id="edge25" class="edge">
<title>6&#45;&gt;6</title>
<path fill="none" stroke="black" d="M398.79,-377.93C408.78,-378.06 417,-376.75 417,-374 417,-372.28 413.79,-371.13 408.94,-370.53"/>
<polygon fill="black" stroke="black" points="408.94,-367.03 398.79,-370.07 408.63,-374.02 408.94,-367.03"/>
<text text-anchor="middle" x="420.5" y="-370.3" font-family="Times New Roman,serif" font-size="14.00">n</text>
</g>
<!-- 6&#45;&gt;6 -->
<g id="edge27" class="edge">
<title>6&#45;&gt;6</title>
<path fill="none" stroke="black" d="M397.23,-380.94C416.04,-383.37 435,-381.05 435,-374 435,-368.21 422.24,-365.62 407.27,-366.21"/>
<polygon fill="black" stroke="black" points="406.9,-362.73 397.23,-367.06 407.49,-369.7 406.9,-362.73"/>
<text text-anchor="middle" x="438.5" y="-370.3" font-family="Times New Roman,serif" font-size="14.00">e</text>
</g>
<!-- 6&#45;&gt;20 -->
<g id="edge26" class="edge">
<title>6&#45;&gt;20</title>
<path fill="none" stroke="black" d="M365.11,-356.56C363.04,-350.79 361.03,-344.21 360,-338 358.71,-330.25 359.72,-321.92 361.61,-314.33"/>
<polygon fill="black" stroke="black" points="365.02,-315.13 364.59,-304.55 358.33,-313.09 365.02,-315.13"/>
<text text-anchor="middle" x="363.5" y="-326.8" font-family="Times New Roman,serif" font-size="14.00">s</text>
</g>
<!-- 5 -->
<g id="node18" class="node">
<title>5</title>
<ellipse fill="none" stroke="black" cx="372" cy="-461" rx="27" ry="18"/>
<text text-anchor="middle" x="372" y="-457.3" font-family="Times New Roman,serif" font-size="14.00">5</text>
</g>
<!-- 6&#45;&gt;5 -->
<g id="edge28" class="edge">
<title>6&#45;&gt;5</title>
<path fill="none" stroke="black" d="M372,-392.18C372,-403.81 372,-419.42 372,-432.73"/>
<polygon fill="black" stroke="black" points="368.5,-432.8 372,-442.8 375.5,-432.8 368.5,-432.8"/>
<text text-anchor="middle" x="377" y="-413.8" font-family="Times New Roman,serif" font-size="14.00">w</text>
</g>
<!-- 0&#45;&gt;sink -->
<g id="edge89" class="edge">
<title>0&#45;&gt;sink</title>
<path fill="none" stroke="black" d="M198.41,-792.01C190.93,-779.55 180.41,-762.01 171.84,-747.74"/>
<polygon fill="black" stroke="black" points="174.7,-745.69 166.55,-738.92 168.69,-749.29 174.7,-745.69"/>
<text text-anchor="middle" x="189.5" y="-761.8" font-family="Times New Roman,serif" font-size="14.00">n</text>
</g>
<!-- 0&#45;&gt;11 -->
<g id="edge2" class="edge">
<title>0&#45;&gt;11</title>
<path fill="none" stroke="black" d="M183.45,-800.98C164.55,-795.01 138.16,-785.43 117,-773 103.58,-765.12 90.14,-754.26 79.39,-744.67"/>
<polygon fill="black" stroke="black" points="81.47,-741.84 71.74,-737.66 76.74,-747 81.47,-741.84"/>
<text text-anchor="middle" x="120.5" y="-761.8" font-family="Times New Roman,serif" font-size="14.00">s</text>
</g>
<!-- 0&#45;&gt;0 -->
<g id="edge4" class="edge">
<title>0&#45;&gt;0</title>
<path fill="none" stroke="black" d="M232.53,-816.75C243.51,-817.49 253,-814.91 253,-809 253,-805.03 248.72,-802.56 242.57,-801.59"/>
<polygon fill="black" stroke="black" points="242.65,-798.09 232.53,-801.25 242.41,-805.09 242.65,-798.09"/>
<text text-anchor="middle" x="258" y="-805.3" font-family="Times New Roman,serif" font-size="14.00">w</text>
</g>
<!-- 4 -->
<g id="node15" class="node">
<title>4</title>
<ellipse fill="none" stroke="black" cx="332" cy="-722" rx="27" ry="18"/>
<text text-anchor="middle" x="332" y="-718.3" font-family="Times New Roman,serif" font-size="14.00">4</text>
</g>
<!-- 0&#45;&gt;4 -->
<g id="edge3" class="edge">
<title>0&#45;&gt;4</title>
<path fill="none" stroke="black" d="M217.05,-791.6C223.78,-780.74 233.87,-766.9 246,-758 265.04,-744.02 274.19,-749.05 296,-740 297.82,-739.24 299.68,-738.45 301.55,-737.63"/>
<polygon fill="black" stroke="black" points="303.17,-740.73 310.83,-733.41 300.28,-734.36 303.17,-740.73"/>
<text text-anchor="middle" x="249.5" y="-761.8" font-family="Times New Roman,serif" font-size="14.00">e</text>
</g>
<!-- 8 -->
<g id="node10" class="node">
<title>8</title>
<ellipse fill="none" stroke="black" cx="346" cy="-635" rx="27" ry="18"/>
<text text-anchor="middle" x="346" y="-631.3" font-family="Times New Roman,serif" font-size="14.00">8</text>
</g>
<!-- 8&#45;&gt;8 -->
<g id="edge34" class="edge">
<title>8&#45;&gt;8</title>
<path fill="none" stroke="black" d="M372.79,-638.93C382.78,-639.06 391,-637.75 391,-635 391,-633.28 387.79,-632.13 382.94,-631.53"/>
<polygon fill="black" stroke="black" points="382.94,-628.03 372.79,-631.07 382.63,-635.02 382.94,-628.03"/>
<text text-anchor="middle" x="394.5" y="-631.3" font-family="Times New Roman,serif" font-size="14.00">s</text>
</g>
<!-- 8&#45;&gt;8 -->
<g id="edge36" class="edge">
<title>8&#45;&gt;8</title>
<path fill="none" stroke="black" d="M371.23,-641.94C390.04,-644.37 409,-642.05 409,-635 409,-629.21 396.24,-626.62 381.27,-627.21"/>
<polygon fill="black" stroke="black" points="380.9,-623.73 371.23,-628.06 381.49,-630.7 380.9,-623.73"/>
<text text-anchor="middle" x="414" y="-631.3" font-family="Times New Roman,serif" font-size="14.00">w</text>
</g>
<!-- 8&#45;&gt;4 -->
<g id="edge33" class="edge">
<title>8&#45;&gt;4</title>
<path fill="none" stroke="black" d="M343.17,-653.18C341.26,-664.81 338.68,-680.42 336.49,-693.73"/>
<polygon fill="black" stroke="black" points="333,-693.36 334.83,-703.8 339.91,-694.5 333,-693.36"/>
<text text-anchor="middle" x="343.5" y="-674.8" font-family="Times New Roman,serif" font-size="14.00">n</text>
</g>
<!-- 9 -->
<g id="node17" class="node">
<title>9</title>
<ellipse fill="none" stroke="black" cx="372" cy="-548" rx="27" ry="18"/>
<text text-anchor="middle" x="372" y="-544.3" font-family="Times New Roman,serif" font-size="14.00">9</text>
</g>
<!-- 8&#45;&gt;9 -->
<g id="edge35" class="edge">
<title>8&#45;&gt;9</title>
<path fill="none" stroke="black" d="M343.38,-616.91C342.51,-607.05 342.51,-594.55 346,-584 347.39,-579.8 349.5,-575.69 351.94,-571.85"/>
<polygon fill="black" stroke="black" points="354.98,-573.61 358,-563.46 349.3,-569.51 354.98,-573.61"/>
<text text-anchor="middle" x="349.5" y="-587.8" font-family="Times New Roman,serif" font-size="14.00">e</text>
</g>
<!-- 3&#45;&gt;19 -->
<g id="edge14" class="edge">
<title>3&#45;&gt;19</title>
<path fill="none" stroke="black" d="M415.53,-129.8C411.26,-140.27 405.46,-153.16 399,-164 396.64,-167.96 393.89,-172 391.08,-175.85"/>
<polygon fill="black" stroke="black" points="388.23,-173.82 384.93,-183.89 393.79,-178.07 388.23,-173.82"/>
<text text-anchor="middle" x="410.5" y="-152.8" font-family="Times New Roman,serif" font-size="14.00">s</text>
</g>
<!-- 3&#45;&gt;3 -->
<g id="edge13" class="edge">
<title>3&#45;&gt;3</title>
<path fill="none" stroke="black" d="M445.21,-111.84C454.8,-112.07 463,-111.13 463,-109 463,-107.7 459.95,-106.85 455.4,-106.43"/>
<polygon fill="black" stroke="black" points="455.3,-102.92 445.21,-106.16 455.12,-109.92 455.3,-102.92"/>
<text text-anchor="middle" x="466.5" y="-105.3" font-family="Times New Roman,serif" font-size="14.00">n</text>
</g>
<!-- 3&#45;&gt;3 -->
<g id="edge15" class="edge">
<title>3&#45;&gt;3</title>
<path fill="none" stroke="black" d="M444.72,-113.91C462.52,-115.94 481,-114.3 481,-109 481,-104.73 469.03,-102.84 455.08,-103.32"/>
<polygon fill="black" stroke="black" points="454.43,-99.86 444.72,-104.09 454.95,-106.84 454.43,-99.86"/>
<text text-anchor="middle" x="484.5" y="-105.3" font-family="Times New Roman,serif" font-size="14.00">e</text>
</g>
<!-- 3&#45;&gt;3 -->
<g id="edge16" class="edge">
<title>3&#45;&gt;3</title>
<path fill="none" stroke="black" d="M444.4,-115.26C469.6,-119.85 499,-117.76 499,-109 499,-101.4 476.89,-98.83 454.58,-101.26"/>
<polygon fill="black" stroke="black" points="453.79,-97.84 444.4,-102.74 454.79,-104.77 453.79,-97.84"/>
<text text-anchor="middle" x="504" y="-105.3" font-family="Times New Roman,serif" font-size="14.00">w</text>
</g>
<!-- 13&#45;&gt;11 -->
<g id="edge53" class="edge">
<title>13&#45;&gt;11</title>
<path fill="none" stroke="black" d="M43.68,-392.26C43.39,-409.43 43,-436.53 43,-460 43,-636 43,-636 43,-636 43,-655.63 46.68,-677.47 50.27,-694.1"/>
<polygon fill="black" stroke="black" points="46.93,-695.23 52.57,-704.2 53.76,-693.67 46.93,-695.23"/>
<text text-anchor="middle" x="46.5" y="-544.3" font-family="Times New Roman,serif" font-size="14.00">n</text>
</g>
<!-- 13&#45;&gt;13 -->
<g id="edge54" class="edge">
<title>13&#45;&gt;13</title>
<path fill="none" stroke="black" d="M70.79,-377.93C80.78,-378.06 89,-376.75 89,-374 89,-372.28 85.79,-371.13 80.94,-370.53"/>
<polygon fill="black" stroke="black" points="80.94,-367.03 70.79,-370.07 80.63,-374.02 80.94,-367.03"/>
<text text-anchor="middle" x="92.5" y="-370.3" font-family="Times New Roman,serif" font-size="14.00">s</text>
</g>
<!-- 13&#45;&gt;13 -->
<g id="edge56" class="edge">
<title>13&#45;&gt;13</title>
<path fill="none" stroke="black" d="M69.23,-380.94C88.04,-383.37 107,-381.05 107,-374 107,-368.21 94.24,-365.62 79.27,-366.21"/>
<polygon fill="black" stroke="black" points="78.9,-362.73 69.23,-367.06 79.49,-369.7 78.9,-362.73"/>
<text text-anchor="middle" x="112" y="-370.3" font-family="Times New Roman,serif" font-size="14.00">w</text>
</g>
<!-- 13&#45;&gt;15 -->
<g id="edge55" class="edge">
<title>13&#45;&gt;15</title>
<path fill="none" stroke="black" d="M62.62,-387.51C70.78,-393.62 80.07,-401.49 87,-410 92.86,-417.2 97.95,-425.93 102.03,-434.07"/>
<polygon fill="black" stroke="black" points="98.92,-435.67 106.35,-443.22 105.25,-432.68 98.92,-435.67"/>
<text text-anchor="middle" x="100.5" y="-413.8" font-family="Times New Roman,serif" font-size="14.00">e</text>
</g>
<!-- 17&#45;&gt;18 -->
<g id="edge71" class="edge">
<title>17&#45;&gt;18</title>
<path fill="none" stroke="black" d="M306,-36.11C306,-48.65 306,-65.95 306,-80.44"/>
<polygon fill="black" stroke="black" points="302.5,-80.84 306,-90.84 309.5,-80.84 302.5,-80.84"/>
<text text-anchor="middle" x="309.5" y="-57.8" font-family="Times New Roman,serif" font-size="14.00">e</text>
</g>
<!-- 17&#45;&gt;17 -->
<g id="edge69" class="edge">
<title>17&#45;&gt;17</title>
<path fill="none" stroke="black" d="M332.79,-20.62C342.78,-20.71 351,-19.83 351,-18 351,-16.85 347.79,-16.08 342.94,-15.69"/>
<polygon fill="black" stroke="black" points="342.9,-12.19 332.79,-15.38 342.68,-19.18 342.9,-12.19"/>
<text text-anchor="middle" x="354.5" y="-14.3" font-family="Times New Roman,serif" font-size="14.00">n</text>
</g>
<!-- 17&#45;&gt;17 -->
<g id="edge70" class="edge">
<title>17&#45;&gt;17</title>
<path fill="none" stroke="black" d="M332.21,-22.71C350.7,-24.19 369,-22.62 369,-18 369,-14.25 356.92,-12.5 342.47,-12.78"/>
<polygon fill="black" stroke="black" points="342.03,-9.3 332.21,-13.29 342.38,-16.29 342.03,-9.3"/>
<text text-anchor="middle" x="372.5" y="-14.3" font-family="Times New Roman,serif" font-size="14.00">s</text>
</g>
<!-- 17&#45;&gt;17 -->
<g id="edge72" class="edge">
<title>17&#45;&gt;17</title>
<path fill="none" stroke="black" d="M331.71,-24.14C357.88,-27.76 387,-25.71 387,-18 387,-11.28 364.9,-8.86 341.91,-10.74"/>
<polygon fill="black" stroke="black" points="341.27,-7.29 331.71,-11.86 342.03,-14.25 341.27,-7.29"/>
<text text-anchor="middle" x="392" y="-14.3" font-family="Times New Roman,serif" font-size="14.00">w</text>
</g>
<!-- 14 -->
<g id="node14" class="node">
<title>14</title>
<ellipse fill="none" stroke="black" cx="95" cy="-548" rx="27" ry="18"/>
<text text-anchor="middle" x="95" y="-544.3" font-family="Times New Roman,serif" font-size="14.00">14</text>
</g>
<!-- 14&#45;&gt;14 -->
<g id="edge57" class="edge">
<title>14&#45;&gt;14</title>
<path fill="none" stroke="black" d="M121.79,-551.93C131.78,-552.06 140,-550.75 140,-548 140,-546.28 136.79,-545.13 131.94,-544.53"/>
<polygon fill="black" stroke="black" points="131.94,-541.03 121.79,-544.07 131.63,-548.02 131.94,-541.03"/>
<text text-anchor="middle" x="143.5" y="-544.3" font-family="Times New Roman,serif" font-size="14.00">n</text>
</g>
<!-- 14&#45;&gt;14 -->
<g id="edge59" class="edge">
<title>14&#45;&gt;14</title>
<path fill="none" stroke="black" d="M120.23,-554.94C139.04,-557.37 158,-555.05 158,-548 158,-542.21 145.24,-539.62 130.27,-540.21"/>
<polygon fill="black" stroke="black" points="129.9,-536.73 120.23,-541.06 130.49,-543.7 129.9,-536.73"/>
<text text-anchor="middle" x="161.5" y="-544.3" font-family="Times New Roman,serif" font-size="14.00">e</text>
</g>
<!-- 14&#45;&gt;15 -->
<g id="edge58" class="edge">
<title>14&#45;&gt;15</title>
<path fill="none" stroke="black" d="M92.45,-530.08C91.51,-520.27 91.26,-507.77 94,-497 94.88,-493.54 96.17,-490.06 97.68,-486.7"/>
<polygon fill="black" stroke="black" points="100.86,-488.18 102.33,-477.69 94.64,-484.97 100.86,-488.18"/>
<text text-anchor="middle" x="97.5" y="-500.8" font-family="Times New Roman,serif" font-size="14.00">s</text>
</g>
<!-- 14&#45;&gt;12 -->
<g id="edge60" class="edge">
<title>14&#45;&gt;12</title>
<path fill="none" stroke="black" d="M98.77,-565.89C101.38,-577.53 104.89,-593.25 107.89,-606.66"/>
<polygon fill="black" stroke="black" points="104.56,-607.8 110.16,-616.8 111.39,-606.28 104.56,-607.8"/>
<text text-anchor="middle" x="111" y="-587.8" font-family="Times New Roman,serif" font-size="14.00">w</text>
</g>
<!-- 4&#45;&gt;0 -->
<g id="edge20" class="edge">
<title>4&#45;&gt;0</title>
<path fill="none" stroke="black" d="M313.63,-735.59C292.72,-749.93 258.38,-773.47 234.55,-789.8"/>
<polygon fill="black" stroke="black" points="232.57,-786.92 226.3,-795.46 236.52,-792.69 232.57,-786.92"/>
<text text-anchor="middle" x="283" y="-761.8" font-family="Times New Roman,serif" font-size="14.00">w</text>
</g>
<!-- 4&#45;&gt;8 -->
<g id="edge18" class="edge">
<title>4&#45;&gt;8</title>
<path fill="none" stroke="black" d="M323.49,-704.59C319.51,-694.74 316.36,-682.02 320,-671 321.39,-666.8 323.5,-662.69 325.94,-658.85"/>
<polygon fill="black" stroke="black" points="328.98,-660.61 332,-650.46 323.3,-656.51 328.98,-660.61"/>
<text text-anchor="middle" x="323.5" y="-674.8" font-family="Times New Roman,serif" font-size="14.00">s</text>
</g>
<!-- 4&#45;&gt;4 -->
<g id="edge17" class="edge">
<title>4&#45;&gt;4</title>
<path fill="none" stroke="black" d="M358.79,-725.93C368.78,-726.06 377,-724.75 377,-722 377,-720.28 373.79,-719.13 368.94,-718.53"/>
<polygon fill="black" stroke="black" points="368.94,-715.03 358.79,-718.07 368.63,-722.02 368.94,-715.03"/>
<text text-anchor="middle" x="380.5" y="-718.3" font-family="Times New Roman,serif" font-size="14.00">n</text>
</g>
<!-- 4&#45;&gt;4 -->
<g id="edge19" class="edge">
<title>4&#45;&gt;4</title>
<path fill="none" stroke="black" d="M357.23,-728.94C376.04,-731.37 395,-729.05 395,-722 395,-716.21 382.24,-713.62 367.27,-714.21"/>
<polygon fill="black" stroke="black" points="366.9,-710.73 357.23,-715.06 367.49,-717.7 366.9,-710.73"/>
<text text-anchor="middle" x="398.5" y="-718.3" font-family="Times New Roman,serif" font-size="14.00">e</text>
</g>
<!-- 20&#45;&gt;19 -->
<g id="edge83" class="edge">
<title>20&#45;&gt;19</title>
<path fill="none" stroke="black" d="M365.57,-269.16C363.71,-263.48 361.93,-257.04 361,-251 359.81,-243.27 360.74,-234.94 362.47,-227.35"/>
<polygon fill="black" stroke="black" points="365.89,-228.14 365.21,-217.57 359.14,-226.26 365.89,-228.14"/>
<text text-anchor="middle" x="364.5" y="-239.8" font-family="Times New Roman,serif" font-size="14.00">e</text>
</g>
<!-- 20&#45;&gt;6 -->
<g id="edge81" class="edge">
<title>20&#45;&gt;6</title>
<path fill="none" stroke="black" d="M372,-305.18C372,-316.81 372,-332.42 372,-345.73"/>
<polygon fill="black" stroke="black" points="368.5,-345.8 372,-355.8 375.5,-345.8 368.5,-345.8"/>
<text text-anchor="middle" x="375.5" y="-326.8" font-family="Times New Roman,serif" font-size="14.00">n</text>
</g>
<!-- 20&#45;&gt;20 -->
<g id="edge82" class="edge">
<title>20&#45;&gt;20</title>
<path fill="none" stroke="black" d="M398.79,-290.93C408.78,-291.06 417,-289.75 417,-287 417,-285.28 413.79,-284.13 408.94,-283.53"/>
<polygon fill="black" stroke="black" points="408.94,-280.03 398.79,-283.07 408.63,-287.02 408.94,-280.03"/>
<text text-anchor="middle" x="420.5" y="-283.3" font-family="Times New Roman,serif" font-size="14.00">s</text>
</g>
<!-- 20&#45;&gt;20 -->
<g id="edge84" class="edge">
<title>20&#45;&gt;20</title>
<path fill="none" stroke="black" d="M397.23,-293.94C416.04,-296.37 435,-294.05 435,-287 435,-281.21 422.24,-278.62 407.27,-279.21"/>
<polygon fill="black" stroke="black" points="406.9,-275.73 397.23,-280.06 407.49,-282.7 406.9,-275.73"/>
<text text-anchor="middle" x="440" y="-283.3" font-family="Times New Roman,serif" font-size="14.00">w</text>
</g>
<!-- 9&#45;&gt;8 -->
<g id="edge40" class="edge">
<title>9&#45;&gt;8</title>
<path fill="none" stroke="black" d="M366.87,-565.76C363.24,-577.62 358.3,-593.79 354.14,-607.4"/>
<polygon fill="black" stroke="black" points="350.71,-606.62 351.14,-617.21 357.41,-608.67 350.71,-606.62"/>
<text text-anchor="middle" x="366" y="-587.8" font-family="Times New Roman,serif" font-size="14.00">w</text>
</g>
<!-- 9&#45;&gt;9 -->
<g id="edge38" class="edge">
<title>9&#45;&gt;9</title>
<path fill="none" stroke="black" d="M398.79,-551.93C408.78,-552.06 417,-550.75 417,-548 417,-546.28 413.79,-545.13 408.94,-544.53"/>
<polygon fill="black" stroke="black" points="408.94,-541.03 398.79,-544.07 408.63,-548.02 408.94,-541.03"/>
<text text-anchor="middle" x="420.5" y="-544.3" font-family="Times New Roman,serif" font-size="14.00">s</text>
</g>
<!-- 9&#45;&gt;9 -->
<g id="edge39" class="edge">
<title>9&#45;&gt;9</title>
<path fill="none" stroke="black" d="M397.23,-554.94C416.04,-557.37 435,-555.05 435,-548 435,-542.21 422.24,-539.62 407.27,-540.21"/>
<polygon fill="black" stroke="black" points="406.9,-536.73 397.23,-541.06 407.49,-543.7 406.9,-536.73"/>
<text text-anchor="middle" x="438.5" y="-544.3" font-family="Times New Roman,serif" font-size="14.00">e</text>
</g>
<!-- 9&#45;&gt;5 -->
<g id="edge37" class="edge">
<title>9&#45;&gt;5</title>
<path fill="none" stroke="black" d="M365.57,-530.16C363.71,-524.48 361.93,-518.04 361,-512 359.81,-504.27 360.74,-495.94 362.47,-488.35"/>
<polygon fill="black" stroke="black" points="365.89,-489.14 365.21,-478.57 359.14,-487.26 365.89,-489.14"/>
<text text-anchor="middle" x="364.5" y="-500.8" font-family="Times New Roman,serif" font-size="14.00">n</text>
</g>
<!-- 5&#45;&gt;6 -->
<g id="edge23" class="edge">
<title>5&#45;&gt;6</title>
<path fill="none" stroke="black" d="M365.11,-443.56C363.04,-437.79 361.03,-431.21 360,-425 358.71,-417.25 359.72,-408.92 361.61,-401.33"/>
<polygon fill="black" stroke="black" points="365.02,-402.13 364.59,-391.55 358.33,-400.09 365.02,-402.13"/>
<text text-anchor="middle" x="363.5" y="-413.8" font-family="Times New Roman,serif" font-size="14.00">e</text>
</g>
<!-- 5&#45;&gt;9 -->
<g id="edge22" class="edge">
<title>5&#45;&gt;9</title>
<path fill="none" stroke="black" d="M372,-479.18C372,-490.81 372,-506.42 372,-519.73"/>
<polygon fill="black" stroke="black" points="368.5,-519.8 372,-529.8 375.5,-519.8 368.5,-519.8"/>
<text text-anchor="middle" x="375.5" y="-500.8" font-family="Times New Roman,serif" font-size="14.00">s</text>
</g>
<!-- 5&#45;&gt;5 -->
<g id="edge21" class="edge">
<title>5&#45;&gt;5</title>
<path fill="none" stroke="black" d="M398.79,-464.93C408.78,-465.06 417,-463.75 417,-461 417,-459.28 413.79,-458.13 408.94,-457.53"/>
<polygon fill="black" stroke="black" points="408.94,-454.03 398.79,-457.07 408.63,-461.02 408.94,-454.03"/>
<text text-anchor="middle" x="420.5" y="-457.3" font-family="Times New Roman,serif" font-size="14.00">n</text>
</g>
<!-- 5&#45;&gt;5 -->
<g id="edge24" class="edge">
<title>5&#45;&gt;5</title>
<path fill="none" stroke="black" d="M397.23,-467.94C416.04,-470.37 435,-468.05 435,-461 435,-455.21 422.24,-452.62 407.27,-453.21"/>
<polygon fill="black" stroke="black" points="406.9,-449.73 397.23,-454.06 407.49,-456.7 406.9,-449.73"/>
<text text-anchor="middle" x="440" y="-457.3" font-family="Times New Roman,serif" font-size="14.00">w</text>
</g>
<!-- 15&#45;&gt;16 -->
<g id="edge63" class="edge">
<title>15&#45;&gt;16</title>
<path fill="none" stroke="black" d="M121.62,-443.91C127.14,-433.95 134.62,-421 142,-410 144.57,-406.17 147.43,-402.21 150.29,-398.39"/>
<polygon fill="black" stroke="black" points="153.14,-400.42 156.45,-390.36 147.59,-396.16 153.14,-400.42"/>
<text text-anchor="middle" x="145.5" y="-413.8" font-family="Times New Roman,serif" font-size="14.00">e</text>
</g>
<!-- 15&#45;&gt;13 -->
<g id="edge64" class="edge">
<title>15&#45;&gt;13</title>
<path fill="none" stroke="black" d="M97.04,-446.48C90.18,-440.28 82.31,-432.63 76,-425 69.63,-417.3 63.5,-408.27 58.33,-400.01"/>
<polygon fill="black" stroke="black" points="61.32,-398.19 53.15,-391.45 55.34,-401.82 61.32,-398.19"/>
<text text-anchor="middle" x="81" y="-413.8" font-family="Times New Roman,serif" font-size="14.00">w</text>
</g>
<!-- 15&#45;&gt;14 -->
<g id="edge61" class="edge">
<title>15&#45;&gt;14</title>
<path fill="none" stroke="black" d="M109.42,-478.89C106.96,-490.53 103.63,-506.25 100.79,-519.66"/>
<polygon fill="black" stroke="black" points="97.29,-519.29 98.64,-529.8 104.14,-520.74 97.29,-519.29"/>
<text text-anchor="middle" x="109.5" y="-500.8" font-family="Times New Roman,serif" font-size="14.00">n</text>
</g>
<!-- 15&#45;&gt;15 -->
<g id="edge62" class="edge">
<title>15&#45;&gt;15</title>
<path fill="none" stroke="black" d="M137.53,-468.75C148.51,-469.49 158,-466.91 158,-461 158,-457.03 153.72,-454.56 147.57,-453.59"/>
<polygon fill="black" stroke="black" points="147.65,-450.09 137.53,-453.25 147.41,-457.09 147.65,-450.09"/>
<text text-anchor="middle" x="161.5" y="-457.3" font-family="Times New Roman,serif" font-size="14.00">s</text>
</g>
<!-- 10 -->
<g id="node20" class="node">
<title>10</title>
<ellipse fill="none" stroke="black" cx="454" cy="-722" rx="27" ry="18"/>
<text text-anchor="middle" x="454" y="-718.3" font-family="Times New Roman,serif" font-size="14.00">10</text>
</g>
<!-- 10&#45;&gt;10 -->
<g id="edge42" class="edge">
<title>10&#45;&gt;10</title>
<path fill="none" stroke="black" d="M480.79,-724.62C490.78,-724.71 499,-723.83 499,-722 499,-720.85 495.79,-720.08 490.94,-719.69"/>
<polygon fill="black" stroke="black" points="490.9,-716.19 480.79,-719.38 490.68,-723.18 490.9,-716.19"/>
<text text-anchor="middle" x="502.5" y="-718.3" font-family="Times New Roman,serif" font-size="14.00">s</text>
</g>
<!-- 10&#45;&gt;10 -->
<g id="edge43" class="edge">
<title>10&#45;&gt;10</title>
<path fill="none" stroke="black" d="M480.21,-726.71C498.7,-728.19 517,-726.62 517,-722 517,-718.25 504.92,-716.5 490.47,-716.78"/>
<polygon fill="black" stroke="black" points="490.03,-713.3 480.21,-717.29 490.38,-720.29 490.03,-713.3"/>
<text text-anchor="middle" x="520.5" y="-718.3" font-family="Times New Roman,serif" font-size="14.00">e</text>
</g>
<!-- 10&#45;&gt;10 -->
<g id="edge44" class="edge">
<title>10&#45;&gt;10</title>
<path fill="none" stroke="black" d="M479.71,-728.14C505.88,-731.76 535,-729.71 535,-722 535,-715.28 512.9,-712.86 489.91,-714.74"/>
<polygon fill="black" stroke="black" points="489.27,-711.29 479.71,-715.86 490.03,-718.25 489.27,-711.29"/>
<text text-anchor="middle" x="540" y="-718.3" font-family="Times New Roman,serif" font-size="14.00">w</text>
</g>
<!-- 2 -->
<g id="node23" class="node">
<title>2</title>
<ellipse fill="none" stroke="black" cx="424" cy="-809" rx="27" ry="18"/>
<text text-anchor="middle" x="424" y="-805.3" font-family="Times New Roman,serif" font-size="14.00">2</text>
</g>
<!-- 10&#45;&gt;2 -->
<g id="edge41" class="edge">
<title>10&#45;&gt;2</title>
<path fill="none" stroke="black" d="M448.09,-739.76C443.9,-751.62 438.19,-767.79 433.39,-781.4"/>
<polygon fill="black" stroke="black" points="429.95,-780.61 429.93,-791.21 436.56,-782.94 429.95,-780.61"/>
<text text-anchor="middle" x="444.5" y="-761.8" font-family="Times New Roman,serif" font-size="14.00">n</text>
</g>
<!-- 1 -->
<g id="node21" class="node">
<title>1</title>
<ellipse fill="none" stroke="black" cx="394" cy="-896" rx="27" ry="18"/>
<text text-anchor="middle" x="394" y="-892.3" font-family="Times New Roman,serif" font-size="14.00">1</text>
</g>
<!-- 1&#45;&gt;0 -->
<g id="edge6" class="edge">
<title>1&#45;&gt;0</title>
<path fill="none" stroke="black" d="M372.3,-885.08C339.4,-870.05 276.75,-841.42 239.04,-824.18"/>
<polygon fill="black" stroke="black" points="240.11,-820.83 229.56,-819.85 237.2,-827.19 240.11,-820.83"/>
<text text-anchor="middle" x="316.5" y="-848.8" font-family="Times New Roman,serif" font-size="14.00">s</text>
</g>
<!-- 1&#45;&gt;1 -->
<g id="edge5" class="edge">
<title>1&#45;&gt;1</title>
<path fill="none" stroke="black" d="M420.79,-899.93C430.78,-900.06 439,-898.75 439,-896 439,-894.28 435.79,-893.13 430.94,-892.53"/>
<polygon fill="black" stroke="black" points="430.94,-889.03 420.79,-892.07 430.63,-896.02 430.94,-889.03"/>
<text text-anchor="middle" x="442.5" y="-892.3" font-family="Times New Roman,serif" font-size="14.00">n</text>
</g>
<!-- 1&#45;&gt;1 -->
<g id="edge8" class="edge">
<title>1&#45;&gt;1</title>
<path fill="none" stroke="black" d="M419.23,-902.94C438.04,-905.37 457,-903.05 457,-896 457,-890.21 444.24,-887.62 429.27,-888.21"/>
<polygon fill="black" stroke="black" points="428.9,-884.73 419.23,-889.06 429.49,-891.7 428.9,-884.73"/>
<text text-anchor="middle" x="462" y="-892.3" font-family="Times New Roman,serif" font-size="14.00">w</text>
</g>
<!-- 1&#45;&gt;2 -->
<g id="edge7" class="edge">
<title>1&#45;&gt;2</title>
<path fill="none" stroke="black" d="M392.57,-877.82C392.34,-867.92 393.09,-855.42 397,-845 398.62,-840.68 400.97,-836.46 403.61,-832.53"/>
<polygon fill="black" stroke="black" points="406.47,-834.55 409.71,-824.46 400.89,-830.33 406.47,-834.55"/>
<text text-anchor="middle" x="400.5" y="-848.8" font-family="Times New Roman,serif" font-size="14.00">e</text>
</g>
<!-- 12&#45;&gt;11 -->
<g id="edge52" class="edge">
<title>12&#45;&gt;11</title>
<path fill="none" stroke="black" d="M106.32,-652.27C101.32,-662.31 94.37,-675.27 87,-686 84.15,-690.15 80.89,-694.38 77.59,-698.39"/>
<polygon fill="black" stroke="black" points="74.72,-696.36 70.88,-706.23 80.04,-700.91 74.72,-696.36"/>
<text text-anchor="middle" x="102" y="-674.8" font-family="Times New Roman,serif" font-size="14.00">w</text>
</g>
<!-- 12&#45;&gt;7 -->
<g id="edge49" class="edge">
<title>12&#45;&gt;7</title>
<path fill="none" stroke="black" d="M129.02,-619.54C139.86,-609.3 155,-595.42 169,-584 175.74,-578.5 183.26,-572.83 190.3,-567.69"/>
<polygon fill="black" stroke="black" points="192.8,-570.2 198.87,-561.52 188.71,-564.52 192.8,-570.2"/>
<text text-anchor="middle" x="172.5" y="-587.8" font-family="Times New Roman,serif" font-size="14.00">n</text>
</g>
<!-- 12&#45;&gt;14 -->
<g id="edge51" class="edge">
<title>12&#45;&gt;14</title>
<path fill="none" stroke="black" d="M103.96,-618.23C100.79,-612.41 97.67,-605.62 96,-599 94.2,-591.87 93.48,-583.99 93.32,-576.64"/>
<polygon fill="black" stroke="black" points="96.83,-576.42 93.44,-566.38 89.83,-576.34 96.83,-576.42"/>
<text text-anchor="middle" x="99.5" y="-587.8" font-family="Times New Roman,serif" font-size="14.00">e</text>
</g>
<!-- 12&#45;&gt;12 -->
<g id="edge50" class="edge">
<title>12&#45;&gt;12</title>
<path fill="none" stroke="black" d="M138.53,-642.75C149.51,-643.49 159,-640.91 159,-635 159,-631.03 154.72,-628.56 148.57,-627.59"/>
<polygon fill="black" stroke="black" points="148.65,-624.09 138.53,-627.25 148.41,-631.09 148.65,-624.09"/>
<text text-anchor="middle" x="162.5" y="-631.3" font-family="Times New Roman,serif" font-size="14.00">s</text>
</g>
<!-- 2&#45;&gt;10 -->
<g id="edge10" class="edge">
<title>2&#45;&gt;10</title>
<path fill="none" stroke="black" d="M422.57,-790.82C422.34,-780.92 423.09,-768.42 427,-758 428.62,-753.68 430.97,-749.46 433.61,-745.53"/>
<polygon fill="black" stroke="black" points="436.47,-747.55 439.71,-737.46 430.89,-743.33 436.47,-747.55"/>
<text text-anchor="middle" x="430.5" y="-761.8" font-family="Times New Roman,serif" font-size="14.00">s</text>
</g>
<!-- 2&#45;&gt;1 -->
<g id="edge12" class="edge">
<title>2&#45;&gt;1</title>
<path fill="none" stroke="black" d="M418.09,-826.76C413.9,-838.62 408.19,-854.79 403.39,-868.4"/>
<polygon fill="black" stroke="black" points="399.95,-867.61 399.93,-878.21 406.56,-869.94 399.95,-867.61"/>
<text text-anchor="middle" x="416" y="-848.8" font-family="Times New Roman,serif" font-size="14.00">w</text>
</g>
<!-- 2&#45;&gt;2 -->
<g id="edge9" class="edge">
<title>2&#45;&gt;2</title>
<path fill="none" stroke="black" d="M450.79,-812.93C460.78,-813.06 469,-811.75 469,-809 469,-807.28 465.79,-806.13 460.94,-805.53"/>
<polygon fill="black" stroke="black" points="460.94,-802.03 450.79,-805.07 460.63,-809.02 460.94,-802.03"/>
<text text-anchor="middle" x="472.5" y="-805.3" font-family="Times New Roman,serif" font-size="14.00">n</text>
</g>
<!-- 2&#45;&gt;2 -->
<g id="edge11" class="edge">
<title>2&#45;&gt;2</title>
<path fill="none" stroke="black" d="M449.23,-815.94C468.04,-818.37 487,-816.05 487,-809 487,-803.21 474.24,-800.62 459.27,-801.21"/>
<polygon fill="black" stroke="black" points="458.9,-797.73 449.23,-802.06 459.49,-804.7 458.9,-797.73"/>
<text text-anchor="middle" x="490.5" y="-805.3" font-family="Times New Roman,serif" font-size="14.00">e</text>
</g>
</g>
</svg>
