<?xml version="1.0" encoding="UTF-8" standalone="no"?>
<!DOCTYPE svg PUBLIC "-//W3C//DTD SVG 1.1//EN"
 "http://www.w3.org/Graphics/SVG/1.1/DTD/svg11.dtd">
<!-- Generated by graphviz version 2.46.0 (20210118.1747)
 -->
<!-- Pages: 1 -->
<svg width="257pt" height="494pt"
 viewBox="0.00 0.00 257.00 494.00" xmlns="http://www.w3.org/2000/svg" xmlns:xlink="http://www.w3.org/1999/xlink">
<g id="graph0" class="graph" transform="scale(1 1) rotate(0) translate(4 490)">
<polygon fill="white" stroke="transparent" points="-4,4 -4,-490 253,-490 253,4 -4,4"/>
<!-- fake -->
<g id="node1" class="node">
<title>fake</title>
</g>
<!-- 0 -->
<g id="node2" class="node">
<title>0</title>
<ellipse fill="none" stroke="black" cx="88" cy="-395" rx="27" ry="18"/>
<text text-anchor="middle" x="88" y="-391.3" font-family="Times New Roman,serif" font-size="14.00">0</text>
</g>
<!-- fake&#45;&gt;0 -->
<g id="edge1" class="edge">
<title>fake&#45;&gt;0</title>
<path fill="none" stroke="black" stroke-width="2" d="M88,-449.81C88,-441.79 88,-432.05 88,-423.07"/>
<polygon fill="black" stroke="black" stroke-width="2" points="91.5,-423.03 88,-413.03 84.5,-423.03 91.5,-423.03"/>
</g>
<!-- sink -->
<g id="node5" class="node">
<title>sink</title>
<ellipse fill="none" stroke="black" cx="27" cy="-308" rx="27" ry="18"/>
<text text-anchor="middle" x="27" y="-304.3" font-family="Times New Roman,serif" font-size="14.00">sink</text>
</g>
<!-- 0&#45;&gt;sink -->
<g id="edge13" class="edge">
<title>0&#45;&gt;sink</title>
<path fill="none" stroke="black" d="M76.81,-378.41C67.7,-365.71 54.67,-347.56 44.23,-333.01"/>
<polygon fill="black" stroke="black" points="46.79,-330.58 38.12,-324.49 41.1,-334.66 46.79,-330.58"/>
<text text-anchor="middle" x="64.5" y="-347.8" font-family="Times New Roman,serif" font-size="14.00">a</text>
</g>
<!-- 1 -->
<g id="node7" class="node">
<title>1</title>
<ellipse fill="none" stroke="black" cx="150" cy="-308" rx="27" ry="18"/>
<text text-anchor="middle" x="150" y="-304.3" font-family="Times New Roman,serif" font-size="14.00">1</text>
</g>
<!-- 0&#45;&gt;1 -->
<g id="edge2" class="edge">
<title>0&#45;&gt;1</title>
<path fill="none" stroke="black" d="M99.37,-378.41C108.72,-365.59 122.12,-347.22 132.79,-332.6"/>
<polygon fill="black" stroke="black" points="135.63,-334.63 138.7,-324.49 129.98,-330.51 135.63,-334.63"/>
<text text-anchor="middle" x="126" y="-347.8" font-family="Times New Roman,serif" font-size="14.00">b</text>
</g>
<!-- 3 -->
<g id="node3" class="node">
<title>3</title>
<ellipse fill="none" stroke="black" cx="120" cy="-221" rx="27" ry="18"/>
<text text-anchor="middle" x="120" y="-217.3" font-family="Times New Roman,serif" font-size="14.00">3</text>
</g>
<!-- 4 -->
<g id="node6" class="node">
<title>4</title>
<ellipse fill="none" stroke="black" cx="110" cy="-113" rx="27" ry="18"/>
<text text-anchor="middle" x="110" y="-109.3" font-family="Times New Roman,serif" font-size="14.00">4</text>
</g>
<!-- 3&#45;&gt;4 -->
<g id="edge7" class="edge">
<title>3&#45;&gt;4</title>
<path fill="none" stroke="black" d="M118.39,-202.97C116.82,-186.28 114.39,-160.58 112.56,-141.08"/>
<polygon fill="black" stroke="black" points="116.03,-140.62 111.6,-130.99 109.06,-141.27 116.03,-140.62"/>
<text text-anchor="middle" x="119.5" y="-163.3" font-family="Times New Roman,serif" font-size="14.00">a</text>
</g>
<!-- 3&#45;&gt;1 -->
<g id="edge8" class="edge">
<title>3&#45;&gt;1</title>
<path fill="none" stroke="black" d="M125.91,-238.76C130.1,-250.62 135.81,-266.79 140.61,-280.4"/>
<polygon fill="black" stroke="black" points="137.44,-281.94 144.07,-290.21 144.05,-279.61 137.44,-281.94"/>
<text text-anchor="middle" x="140" y="-260.8" font-family="Times New Roman,serif" font-size="14.00">b</text>
</g>
<!-- 5 -->
<g id="node4" class="node">
<title>5</title>
<ellipse fill="none" stroke="black" cx="154" cy="-22" rx="18" ry="18"/>
<ellipse fill="none" stroke="black" cx="154" cy="-22" rx="22" ry="22"/>
<text text-anchor="middle" x="154" y="-18.3" font-family="Times New Roman,serif" font-size="14.00">5</text>
</g>
<!-- 5&#45;&gt;5 -->
<g id="edge11" class="edge">
<title>5&#45;&gt;5</title>
<path fill="none" stroke="black" d="M175.81,-26.25C185.56,-26.65 194,-25.23 194,-22 194,-19.98 190.7,-18.67 185.85,-18.07"/>
<polygon fill="black" stroke="black" points="185.91,-14.57 175.81,-17.75 185.69,-21.56 185.91,-14.57"/>
<text text-anchor="middle" x="197.5" y="-18.3" font-family="Times New Roman,serif" font-size="14.00">a</text>
</g>
<!-- 5&#45;&gt;5 -->
<g id="edge12" class="edge">
<title>5&#45;&gt;5</title>
<path fill="none" stroke="black" d="M174.81,-29.2C192.88,-32.49 212,-30.09 212,-22 212,-15.43 199.38,-12.61 184.96,-13.55"/>
<polygon fill="black" stroke="black" points="184.31,-10.1 174.81,-14.8 185.17,-17.05 184.31,-10.1"/>
<text text-anchor="middle" x="216" y="-18.3" font-family="Times New Roman,serif" font-size="14.00">b</text>
</g>
<!-- sink&#45;&gt;sink -->
<g id="edge14" class="edge">
<title>sink&#45;&gt;sink</title>
<path fill="none" stroke="black" d="M53.79,-311.93C63.78,-312.06 72,-310.75 72,-308 72,-306.28 68.79,-305.13 63.94,-304.53"/>
<polygon fill="black" stroke="black" points="63.94,-301.03 53.79,-304.07 63.63,-308.02 63.94,-301.03"/>
<text text-anchor="middle" x="75.5" y="-304.3" font-family="Times New Roman,serif" font-size="14.00">a</text>
</g>
<!-- sink&#45;&gt;sink -->
<g id="edge15" class="edge">
<title>sink&#45;&gt;sink</title>
<path fill="none" stroke="black" d="M52.23,-314.94C71.04,-317.37 90,-315.05 90,-308 90,-302.21 77.24,-299.62 62.27,-300.21"/>
<polygon fill="black" stroke="black" points="61.9,-296.73 52.23,-301.06 62.49,-303.7 61.9,-296.73"/>
<text text-anchor="middle" x="94" y="-304.3" font-family="Times New Roman,serif" font-size="14.00">b</text>
</g>
<!-- 4&#45;&gt;5 -->
<g id="edge10" class="edge">
<title>4&#45;&gt;5</title>
<path fill="none" stroke="black" d="M118.07,-95.68C124.22,-83.24 132.83,-65.83 140.08,-51.16"/>
<polygon fill="black" stroke="black" points="143.31,-52.52 144.61,-42 137.04,-49.41 143.31,-52.52"/>
<text text-anchor="middle" x="138" y="-65.8" font-family="Times New Roman,serif" font-size="14.00">b</text>
</g>
<!-- 4&#45;&gt;4 -->
<g id="edge9" class="edge">
<title>4&#45;&gt;4</title>
<path fill="none" stroke="black" d="M134.53,-120.75C145.51,-121.49 155,-118.91 155,-113 155,-109.03 150.72,-106.56 144.57,-105.59"/>
<polygon fill="black" stroke="black" points="144.65,-102.09 134.53,-105.25 144.41,-109.09 144.65,-102.09"/>
<text text-anchor="middle" x="158.5" y="-109.3" font-family="Times New Roman,serif" font-size="14.00">a</text>
</g>
<!-- 1&#45;&gt;3 -->
<g id="edge3" class="edge">
<title>1&#45;&gt;3</title>
<path fill="none" stroke="black" d="M135.71,-292.54C130.78,-286.65 125.8,-279.47 123,-272 120.35,-264.92 119.15,-256.87 118.73,-249.34"/>
<polygon fill="black" stroke="black" points="122.22,-249.13 118.57,-239.18 115.22,-249.23 122.22,-249.13"/>
<text text-anchor="middle" x="126.5" y="-260.8" font-family="Times New Roman,serif" font-size="14.00">a</text>
</g>
<!-- 2 -->
<g id="node8" class="node">
<title>2</title>
<ellipse fill="none" stroke="black" cx="196" cy="-167" rx="27" ry="18"/>
<text text-anchor="middle" x="196" y="-163.3" font-family="Times New Roman,serif" font-size="14.00">2</text>
</g>
<!-- 1&#45;&gt;2 -->
<g id="edge4" class="edge">
<title>1&#45;&gt;2</title>
<path fill="none" stroke="black" d="M155.55,-290.23C163.42,-266.44 177.92,-222.64 187.25,-194.44"/>
<polygon fill="black" stroke="black" points="190.61,-195.42 190.43,-184.83 183.97,-193.22 190.61,-195.42"/>
<text text-anchor="middle" x="170" y="-260.8" font-family="Times New Roman,serif" font-size="14.00">b</text>
</g>
<!-- 2&#45;&gt;5 -->
<g id="edge5" class="edge">
<title>2&#45;&gt;5</title>
<path fill="none" stroke="black" d="M191.02,-149.03C184.1,-125.47 171.47,-82.46 162.9,-53.31"/>
<polygon fill="black" stroke="black" points="166.24,-52.24 160.06,-43.64 159.52,-54.22 166.24,-52.24"/>
<text text-anchor="middle" x="188.5" y="-109.3" font-family="Times New Roman,serif" font-size="14.00">a</text>
</g>
<!-- 2&#45;&gt;2 -->
<g id="edge6" class="edge">
<title>2&#45;&gt;2</title>
<path fill="none" stroke="black" d="M218.69,-176.77C230.42,-178.27 241,-175.02 241,-167 241,-161.49 236,-158.23 229.06,-157.22"/>
<polygon fill="black" stroke="black" points="228.69,-153.72 218.69,-157.23 228.7,-160.72 228.69,-153.72"/>
<text text-anchor="middle" x="245" y="-163.3" font-family="Times New Roman,serif" font-size="14.00">b</text>
</g>
</g>
</svg>
