<?xml version="1.0" encoding="UTF-8" standalone="no"?>
<!DOCTYPE svg PUBLIC "-//W3C//DTD SVG 1.1//EN"
 "http://www.w3.org/Graphics/SVG/1.1/DTD/svg11.dtd">
<!-- Generated by graphviz version 2.46.0 (20210118.1747)
 -->
<!-- Pages: 1 -->
<svg width="247pt" height="147pt"
 viewBox="0.00 0.00 247.00 147.00" xmlns="http://www.w3.org/2000/svg" xmlns:xlink="http://www.w3.org/1999/xlink">
<g id="graph0" class="graph" transform="scale(1 1) rotate(0) translate(4 143)">
<polygon fill="white" stroke="transparent" points="-4,4 -4,-143 243,-143 243,4 -4,4"/>
<!-- fake -->
<g id="node1" class="node">
<title>fake</title>
</g>
<!-- 0 -->
<g id="node5" class="node">
<title>0</title>
<ellipse fill="none" stroke="black" cx="27" cy="-22" rx="27" ry="18"/>
<text text-anchor="middle" x="27" y="-18.3" font-family="Times New Roman,serif" font-size="14.00">0</text>
</g>
<!-- fake&#45;&gt;0 -->
<g id="edge1" class="edge">
<title>fake&#45;&gt;0</title>
<path fill="none" stroke="black" stroke-width="2" d="M27,-98.94C27,-85.39 27,-66.18 27,-50.47"/>
<polygon fill="black" stroke="black" stroke-width="2" points="30.5,-50.26 27,-40.26 23.5,-50.26 30.5,-50.26"/>
</g>
<!-- 1 -->
<g id="node2" class="node">
<title>1</title>
<ellipse fill="none" stroke="black" cx="186" cy="-117" rx="18" ry="18"/>
<ellipse fill="none" stroke="black" cx="186" cy="-117" rx="22" ry="22"/>
<text text-anchor="middle" x="186" y="-113.3" font-family="Times New Roman,serif" font-size="14.00">1</text>
</g>
<!-- sink -->
<g id="node3" class="node">
<title>sink</title>
<ellipse fill="none" stroke="black" cx="99" cy="-22" rx="27" ry="18"/>
<text text-anchor="middle" x="99" y="-18.3" font-family="Times New Roman,serif" font-size="14.00">sink</text>
</g>
<!-- 1&#45;&gt;sink -->
<g id="edge2" class="edge">
<title>1&#45;&gt;sink</title>
<path fill="none" stroke="black" d="M171.24,-100.22C157.03,-85.03 135.42,-61.93 119.53,-44.95"/>
<polygon fill="black" stroke="black" points="122.07,-42.54 112.68,-37.63 116.96,-47.32 122.07,-42.54"/>
<text text-anchor="middle" x="150.5" y="-65.8" font-family="Times New Roman,serif" font-size="14.00">a</text>
</g>
<!-- 3 -->
<g id="node4" class="node">
<title>3</title>
<ellipse fill="none" stroke="black" cx="217" cy="-22" rx="18" ry="18"/>
<ellipse fill="none" stroke="black" cx="217" cy="-22" rx="22" ry="22"/>
<text text-anchor="middle" x="217" y="-18.3" font-family="Times New Roman,serif" font-size="14.00">3</text>
</g>
<!-- 1&#45;&gt;3 -->
<g id="edge3" class="edge">
<title>1&#45;&gt;3</title>
<path fill="none" stroke="black" d="M175.7,-97.44C171.19,-86.76 167.94,-73.26 173,-62 176.73,-53.7 183.2,-46.46 190.04,-40.53"/>
<polygon fill="black" stroke="black" points="192.4,-43.13 198.11,-34.21 188.08,-37.62 192.4,-43.13"/>
<text text-anchor="middle" x="177" y="-65.8" font-family="Times New Roman,serif" font-size="14.00">b</text>
</g>
<!-- sink&#45;&gt;sink -->
<g id="edge6" class="edge">
<title>sink&#45;&gt;sink</title>
<path fill="none" stroke="black" d="M125.35,-26.3C135.53,-26.49 144,-25.05 144,-22 144,-20.04 140.53,-18.75 135.35,-18.13"/>
<polygon fill="black" stroke="black" points="135.49,-14.63 125.35,-17.7 135.19,-21.62 135.49,-14.63"/>
<text text-anchor="middle" x="147.5" y="-18.3" font-family="Times New Roman,serif" font-size="14.00">a</text>
</g>
<!-- sink&#45;&gt;sink -->
<g id="edge7" class="edge">
<title>sink&#45;&gt;sink</title>
<path fill="none" stroke="black" d="M123.57,-29.51C142.6,-32.32 162,-29.82 162,-22 162,-15.59 148.94,-12.75 133.75,-13.49"/>
<polygon fill="black" stroke="black" points="133.18,-10.03 123.57,-14.49 133.87,-16.99 133.18,-10.03"/>
<text text-anchor="middle" x="166" y="-18.3" font-family="Times New Roman,serif" font-size="14.00">b</text>
</g>
<!-- 3&#45;&gt;1 -->
<g id="edge4" class="edge">
<title>3&#45;&gt;1</title>
<path fill="none" stroke="black" d="M210.29,-43.14C206.11,-55.68 200.65,-72.05 195.97,-86.09"/>
<polygon fill="black" stroke="black" points="192.57,-85.23 192.73,-95.82 199.21,-87.44 192.57,-85.23"/>
<text text-anchor="middle" x="206.5" y="-65.8" font-family="Times New Roman,serif" font-size="14.00">a</text>
</g>
<!-- 3&#45;&gt;1 -->
<g id="edge5" class="edge">
<title>3&#45;&gt;1</title>
<path fill="none" stroke="black" d="M216.34,-43.99C215.5,-54.19 213.72,-66.48 210,-77 208.44,-81.42 206.32,-85.87 203.99,-90.11"/>
<polygon fill="black" stroke="black" points="200.83,-88.57 198.67,-98.94 206.82,-92.18 200.83,-88.57"/>
<text text-anchor="middle" x="217" y="-65.8" font-family="Times New Roman,serif" font-size="14.00">b</text>
</g>
</g>
</svg>
