<?xml version="1.0" encoding="UTF-8" standalone="no"?>
<!DOCTYPE svg PUBLIC "-//W3C//DTD SVG 1.1//EN"
 "http://www.w3.org/Graphics/SVG/1.1/DTD/svg11.dtd">
<!-- Generated by graphviz version 2.46.0 (20210118.1747)
 -->
<!-- Pages: 1 -->
<svg width="559pt" height="655pt"
 viewBox="0.00 0.00 559.00 655.00" xmlns="http://www.w3.org/2000/svg" xmlns:xlink="http://www.w3.org/1999/xlink">
<g id="graph0" class="graph" transform="scale(1 1) rotate(0) translate(4 651)">
<polygon fill="white" stroke="transparent" points="-4,4 -4,-651 555,-651 555,4 -4,4"/>
<!-- fake -->
<g id="node1" class="node">
<title>fake</title>
</g>
<!-- 0 -->
<g id="node4" class="node">
<title>0</title>
<ellipse fill="none" stroke="black" cx="304" cy="-556" rx="27" ry="18"/>
<text text-anchor="middle" x="304" y="-552.3" font-family="Times New Roman,serif" font-size="14.00">0</text>
</g>
<!-- fake&#45;&gt;0 -->
<g id="edge1" class="edge">
<title>fake&#45;&gt;0</title>
<path fill="none" stroke="black" stroke-width="2" d="M304,-610.81C304,-602.79 304,-593.05 304,-584.07"/>
<polygon fill="black" stroke="black" stroke-width="2" points="307.5,-584.03 304,-574.03 300.5,-584.03 307.5,-584.03"/>
</g>
<!-- 7 -->
<g id="node2" class="node">
<title>7</title>
<ellipse fill="none" stroke="black" cx="178" cy="-287" rx="27" ry="18"/>
<text text-anchor="middle" x="178" y="-283.3" font-family="Times New Roman,serif" font-size="14.00">7</text>
</g>
<!-- 6 -->
<g id="node3" class="node">
<title>6</title>
<ellipse fill="none" stroke="black" cx="186" cy="-200" rx="27" ry="18"/>
<text text-anchor="middle" x="186" y="-196.3" font-family="Times New Roman,serif" font-size="14.00">6</text>
</g>
<!-- 7&#45;&gt;6 -->
<g id="edge23" class="edge">
<title>7&#45;&gt;6</title>
<path fill="none" stroke="black" d="M173.94,-268.78C172.24,-259.1 171.06,-246.82 173,-236 173.53,-233.07 174.28,-230.06 175.17,-227.1"/>
<polygon fill="black" stroke="black" points="178.57,-227.99 178.54,-217.39 171.95,-225.69 178.57,-227.99"/>
<text text-anchor="middle" x="177" y="-239.8" font-family="Times New Roman,serif" font-size="14.00">b</text>
</g>
<!-- 4 -->
<g id="node8" class="node">
<title>4</title>
<ellipse fill="none" stroke="black" cx="149" cy="-18" rx="27" ry="18"/>
<text text-anchor="middle" x="149" y="-14.3" font-family="Times New Roman,serif" font-size="14.00">4</text>
</g>
<!-- 7&#45;&gt;4 -->
<g id="edge22" class="edge">
<title>7&#45;&gt;4</title>
<path fill="none" stroke="black" d="M163.02,-271.96C137.6,-246.7 87.99,-190.64 80,-131 77.4,-111.62 74.33,-105.72 80,-87 85.11,-70.13 89.86,-66.78 102,-54 107.81,-47.88 114.79,-42.05 121.57,-36.96"/>
<polygon fill="black" stroke="black" points="123.87,-39.63 129.96,-30.96 119.79,-33.94 123.87,-39.63"/>
<text text-anchor="middle" x="92.5" y="-152.8" font-family="Times New Roman,serif" font-size="14.00">a</text>
</g>
<!-- 2 -->
<g id="node10" class="node">
<title>2</title>
<ellipse fill="none" stroke="black" cx="251" cy="-374" rx="27" ry="18"/>
<text text-anchor="middle" x="251" y="-370.3" font-family="Times New Roman,serif" font-size="14.00">2</text>
</g>
<!-- 7&#45;&gt;2 -->
<g id="edge24" class="edge">
<title>7&#45;&gt;2</title>
<path fill="none" stroke="black" d="M190.76,-303.41C199.04,-313.34 210.08,-326.5 220,-338 223.49,-342.05 227.23,-346.32 230.87,-350.45"/>
<polygon fill="black" stroke="black" points="228.39,-352.92 237.64,-358.09 233.63,-348.28 228.39,-352.92"/>
<text text-anchor="middle" x="223.5" y="-326.8" font-family="Times New Roman,serif" font-size="14.00">c</text>
</g>
<!-- 6&#45;&gt;7 -->
<g id="edge20" class="edge">
<title>6&#45;&gt;7</title>
<path fill="none" stroke="black" d="M184.38,-218.18C183.29,-229.81 181.82,-245.42 180.57,-258.73"/>
<polygon fill="black" stroke="black" points="177.07,-258.51 179.62,-268.8 184.04,-259.17 177.07,-258.51"/>
<text text-anchor="middle" x="187" y="-239.8" font-family="Times New Roman,serif" font-size="14.00">b</text>
</g>
<!-- 5 -->
<g id="node6" class="node">
<title>5</title>
<ellipse fill="none" stroke="black" cx="111" cy="-109" rx="18" ry="18"/>
<ellipse fill="none" stroke="black" cx="111" cy="-109" rx="22" ry="22"/>
<text text-anchor="middle" x="111" y="-105.3" font-family="Times New Roman,serif" font-size="14.00">5</text>
</g>
<!-- 6&#45;&gt;5 -->
<g id="edge19" class="edge">
<title>6&#45;&gt;5</title>
<path fill="none" stroke="black" d="M159.7,-195.44C140.69,-191.35 116.28,-182.6 104,-164 99.21,-156.74 98.76,-147.73 100.16,-139.16"/>
<polygon fill="black" stroke="black" points="103.57,-139.97 102.5,-129.43 96.76,-138.33 103.57,-139.97"/>
<text text-anchor="middle" x="107.5" y="-152.8" font-family="Times New Roman,serif" font-size="14.00">a</text>
</g>
<!-- 1 -->
<g id="node9" class="node">
<title>1</title>
<ellipse fill="none" stroke="black" cx="243" cy="-109" rx="18" ry="18"/>
<ellipse fill="none" stroke="black" cx="243" cy="-109" rx="22" ry="22"/>
<text text-anchor="middle" x="243" y="-105.3" font-family="Times New Roman,serif" font-size="14.00">1</text>
</g>
<!-- 6&#45;&gt;1 -->
<g id="edge21" class="edge">
<title>6&#45;&gt;1</title>
<path fill="none" stroke="black" d="M196.19,-183.09C204.49,-170.13 216.38,-151.57 226.1,-136.39"/>
<polygon fill="black" stroke="black" points="229.08,-138.22 231.53,-127.92 223.19,-134.45 229.08,-138.22"/>
<text text-anchor="middle" x="221.5" y="-152.8" font-family="Times New Roman,serif" font-size="14.00">c</text>
</g>
<!-- 3 -->
<g id="node5" class="node">
<title>3</title>
<ellipse fill="none" stroke="black" cx="305" cy="-465" rx="18" ry="18"/>
<ellipse fill="none" stroke="black" cx="305" cy="-465" rx="22" ry="22"/>
<text text-anchor="middle" x="305" y="-461.3" font-family="Times New Roman,serif" font-size="14.00">3</text>
</g>
<!-- 0&#45;&gt;3 -->
<g id="edge2" class="edge">
<title>0&#45;&gt;3</title>
<path fill="none" stroke="black" d="M296.54,-538.61C294.29,-532.85 292.12,-526.25 291,-520 289.52,-511.76 290.64,-502.92 292.76,-494.83"/>
<polygon fill="black" stroke="black" points="296.17,-495.68 295.88,-485.09 289.5,-493.54 296.17,-495.68"/>
<text text-anchor="middle" x="295" y="-508.8" font-family="Times New Roman,serif" font-size="14.00">b</text>
</g>
<!-- 0&#45;&gt;5 -->
<g id="edge3" class="edge">
<title>0&#45;&gt;5</title>
<path fill="none" stroke="black" d="M277.52,-551.88C210.24,-543.22 38,-516.16 38,-466 38,-466 38,-466 38,-199 38,-168.79 63.46,-143.22 84.3,-127.35"/>
<polygon fill="black" stroke="black" points="86.53,-130.06 92.58,-121.36 82.43,-124.39 86.53,-130.06"/>
<text text-anchor="middle" x="41.5" y="-326.8" font-family="Times New Roman,serif" font-size="14.00">c</text>
</g>
<!-- sink -->
<g id="node7" class="node">
<title>sink</title>
<ellipse fill="none" stroke="black" cx="448" cy="-465" rx="27" ry="18"/>
<text text-anchor="middle" x="448" y="-461.3" font-family="Times New Roman,serif" font-size="14.00">sink</text>
</g>
<!-- 0&#45;&gt;sink -->
<g id="edge25" class="edge">
<title>0&#45;&gt;sink</title>
<path fill="none" stroke="black" d="M330.09,-550.58C352.19,-545.85 383.86,-536.67 407,-520 417.64,-512.33 426.78,-501.12 433.71,-490.89"/>
<polygon fill="black" stroke="black" points="436.78,-492.58 439.22,-482.27 430.89,-488.81 436.78,-492.58"/>
<text text-anchor="middle" x="424.5" y="-508.8" font-family="Times New Roman,serif" font-size="14.00">a</text>
</g>
<!-- 3&#45;&gt;0 -->
<g id="edge11" class="edge">
<title>3&#45;&gt;0</title>
<path fill="none" stroke="black" d="M304.76,-487.19C304.63,-499.28 304.45,-514.58 304.31,-527.58"/>
<polygon fill="black" stroke="black" points="300.81,-527.8 304.19,-537.84 307.81,-527.88 300.81,-527.8"/>
<text text-anchor="middle" x="309" y="-508.8" font-family="Times New Roman,serif" font-size="14.00">b</text>
</g>
<!-- 3&#45;&gt;4 -->
<g id="edge12" class="edge">
<title>3&#45;&gt;4</title>
<path fill="none" stroke="black" d="M320,-448.73C334.73,-432.07 355,-403.89 355,-375 355,-375 355,-375 355,-108 355,-81.74 351.57,-70.34 331,-54 308.98,-36.51 232.19,-26.59 185.68,-22.05"/>
<polygon fill="black" stroke="black" points="185.97,-18.56 175.69,-21.11 185.32,-25.53 185.97,-18.56"/>
<text text-anchor="middle" x="358.5" y="-239.8" font-family="Times New Roman,serif" font-size="14.00">c</text>
</g>
<!-- 3&#45;&gt;2 -->
<g id="edge10" class="edge">
<title>3&#45;&gt;2</title>
<path fill="none" stroke="black" d="M293.81,-445.56C285.8,-432.36 274.93,-414.44 266.15,-399.96"/>
<polygon fill="black" stroke="black" points="268.91,-397.76 260.73,-391.03 262.92,-401.4 268.91,-397.76"/>
<text text-anchor="middle" x="285.5" y="-413.8" font-family="Times New Roman,serif" font-size="14.00">a</text>
</g>
<!-- 5&#45;&gt;6 -->
<g id="edge16" class="edge">
<title>5&#45;&gt;6</title>
<path fill="none" stroke="black" d="M124.8,-126.38C136.6,-140.38 153.7,-160.67 166.82,-176.24"/>
<polygon fill="black" stroke="black" points="164.16,-178.51 173.28,-183.9 169.51,-174 164.16,-178.51"/>
<text text-anchor="middle" x="159.5" y="-152.8" font-family="Times New Roman,serif" font-size="14.00">a</text>
</g>
<!-- 5&#45;&gt;0 -->
<g id="edge18" class="edge">
<title>5&#45;&gt;0</title>
<path fill="none" stroke="black" d="M90.12,-116.2C57.97,-127.17 0,-153.3 0,-199 0,-466 0,-466 0,-466 0,-521.06 186.03,-544.44 267.04,-552.01"/>
<polygon fill="black" stroke="black" points="267.01,-555.52 277.29,-552.94 267.64,-548.55 267.01,-555.52"/>
<text text-anchor="middle" x="3.5" y="-326.8" font-family="Times New Roman,serif" font-size="14.00">c</text>
</g>
<!-- 5&#45;&gt;4 -->
<g id="edge17" class="edge">
<title>5&#45;&gt;4</title>
<path fill="none" stroke="black" d="M119.43,-88.25C124.89,-75.47 132.05,-58.71 137.95,-44.87"/>
<polygon fill="black" stroke="black" points="141.28,-45.99 141.99,-35.42 134.84,-43.24 141.28,-45.99"/>
<text text-anchor="middle" x="138" y="-57.8" font-family="Times New Roman,serif" font-size="14.00">b</text>
</g>
<!-- sink&#45;&gt;sink -->
<g id="edge26" class="edge">
<title>sink&#45;&gt;sink</title>
<path fill="none" stroke="black" d="M474.79,-467.87C484.78,-467.96 493,-467.01 493,-465 493,-463.75 489.79,-462.9 484.94,-462.47"/>
<polygon fill="black" stroke="black" points="484.91,-458.97 474.79,-462.13 484.67,-465.96 484.91,-458.97"/>
<text text-anchor="middle" x="496.5" y="-461.3" font-family="Times New Roman,serif" font-size="14.00">a</text>
</g>
<!-- sink&#45;&gt;sink -->
<g id="edge27" class="edge">
<title>sink&#45;&gt;sink</title>
<path fill="none" stroke="black" d="M473.89,-470.13C492.48,-471.8 511,-470.09 511,-465 511,-460.86 498.77,-458.96 484.21,-459.29"/>
<polygon fill="black" stroke="black" points="483.67,-455.81 473.89,-459.87 484.07,-462.8 483.67,-455.81"/>
<text text-anchor="middle" x="514.5" y="-461.3" font-family="Times New Roman,serif" font-size="14.00">c</text>
</g>
<!-- sink&#45;&gt;sink -->
<g id="edge28" class="edge">
<title>sink&#45;&gt;sink</title>
<path fill="none" stroke="black" d="M473.3,-471.67C499.57,-475.71 529,-473.49 529,-465 529,-457.57 506.47,-454.94 483.23,-457.11"/>
<polygon fill="black" stroke="black" points="482.79,-453.64 473.3,-458.33 483.65,-460.59 482.79,-453.64"/>
<text text-anchor="middle" x="533" y="-461.3" font-family="Times New Roman,serif" font-size="14.00">b</text>
</g>
<!-- 4&#45;&gt;7 -->
<g id="edge13" class="edge">
<title>4&#45;&gt;7</title>
<path fill="none" stroke="black" d="M147.99,-36.13C147.42,-45.78 146.68,-58.06 146,-69 144.28,-96.56 148.6,-104.19 142,-131 139.91,-139.5 135.82,-140.44 134,-149 132.62,-155.52 133.04,-157.4 134,-164 137.59,-188.77 141.67,-194.4 150,-218 154.96,-232.06 161.22,-247.44 166.57,-260.02"/>
<polygon fill="black" stroke="black" points="163.45,-261.62 170.61,-269.42 169.88,-258.85 163.45,-261.62"/>
<text text-anchor="middle" x="137.5" y="-152.8" font-family="Times New Roman,serif" font-size="14.00">a</text>
</g>
<!-- 4&#45;&gt;3 -->
<g id="edge15" class="edge">
<title>4&#45;&gt;3</title>
<path fill="none" stroke="black" d="M175.62,-21.06C222.99,-26.35 317,-44.79 317,-108 317,-375 317,-375 317,-375 317,-394.5 314.14,-416.18 311.21,-433.26"/>
<polygon fill="black" stroke="black" points="307.74,-432.78 309.4,-443.25 314.63,-434.03 307.74,-432.78"/>
<text text-anchor="middle" x="320.5" y="-239.8" font-family="Times New Roman,serif" font-size="14.00">c</text>
</g>
<!-- 4&#45;&gt;5 -->
<g id="edge14" class="edge">
<title>4&#45;&gt;5</title>
<path fill="none" stroke="black" d="M129.32,-30.83C121.46,-36.71 113.27,-44.59 109,-54 105.74,-61.19 104.84,-69.48 105.1,-77.38"/>
<polygon fill="black" stroke="black" points="101.62,-77.77 106,-87.41 108.59,-77.14 101.62,-77.77"/>
<text text-anchor="middle" x="113" y="-57.8" font-family="Times New Roman,serif" font-size="14.00">b</text>
</g>
<!-- 1&#45;&gt;6 -->
<g id="edge6" class="edge">
<title>1&#45;&gt;6</title>
<path fill="none" stroke="black" d="M223.76,-120.49C213.27,-127.23 201.02,-136.98 194,-149 190.04,-155.78 187.87,-163.93 186.72,-171.65"/>
<polygon fill="black" stroke="black" points="183.22,-171.46 185.72,-181.76 190.19,-172.15 183.22,-171.46"/>
<text text-anchor="middle" x="197.5" y="-152.8" font-family="Times New Roman,serif" font-size="14.00">c</text>
</g>
<!-- 1&#45;&gt;0 -->
<g id="edge4" class="edge">
<title>1&#45;&gt;0</title>
<path fill="none" stroke="black" d="M264.81,-112.74C306.41,-119.33 393,-140.1 393,-199 393,-466 393,-466 393,-466 393,-499.67 360.76,-525.05 335.09,-539.92"/>
<polygon fill="black" stroke="black" points="333.07,-537.03 326,-544.92 336.45,-543.17 333.07,-537.03"/>
<text text-anchor="middle" x="396.5" y="-326.8" font-family="Times New Roman,serif" font-size="14.00">a</text>
</g>
<!-- 1&#45;&gt;2 -->
<g id="edge5" class="edge">
<title>1&#45;&gt;2</title>
<path fill="none" stroke="black" d="M243.65,-131.27C245.09,-178.64 248.56,-292.77 250.16,-345.48"/>
<polygon fill="black" stroke="black" points="246.67,-345.85 250.48,-355.74 253.67,-345.64 246.67,-345.85"/>
<text text-anchor="middle" x="252" y="-239.8" font-family="Times New Roman,serif" font-size="14.00">b</text>
</g>
<!-- 2&#45;&gt;7 -->
<g id="edge9" class="edge">
<title>2&#45;&gt;7</title>
<path fill="none" stroke="black" d="M226.74,-365.62C212.98,-360.18 196.62,-351.36 187,-338 182.27,-331.43 179.77,-323.15 178.52,-315.22"/>
<polygon fill="black" stroke="black" points="181.99,-314.77 177.5,-305.18 175.03,-315.48 181.99,-314.77"/>
<text text-anchor="middle" x="190.5" y="-326.8" font-family="Times New Roman,serif" font-size="14.00">c</text>
</g>
<!-- 2&#45;&gt;3 -->
<g id="edge7" class="edge">
<title>2&#45;&gt;3</title>
<path fill="none" stroke="black" d="M252.16,-392.15C253.46,-402.27 256.21,-415 262,-425 266.34,-432.48 272.59,-439.33 279,-445.12"/>
<polygon fill="black" stroke="black" points="277.14,-448.13 287.06,-451.87 281.64,-442.77 277.14,-448.13"/>
<text text-anchor="middle" x="265.5" y="-413.8" font-family="Times New Roman,serif" font-size="14.00">a</text>
</g>
<!-- 2&#45;&gt;1 -->
<g id="edge8" class="edge">
<title>2&#45;&gt;1</title>
<path fill="none" stroke="black" d="M258.46,-356.61C260.71,-350.85 262.88,-344.25 264,-338 265.18,-331.44 264.06,-329.67 264,-323 263.28,-245.64 275.23,-224.64 259,-149 258.26,-145.53 257.22,-141.98 256.03,-138.5"/>
<polygon fill="black" stroke="black" points="259.24,-137.08 252.38,-129.01 252.7,-139.6 259.24,-137.08"/>
<text text-anchor="middle" x="272" y="-239.8" font-family="Times New Roman,serif" font-size="14.00">b</text>
</g>
</g>
</svg>
